<svg width="431" height="486" viewBox="0 0 431 486" fill="none" xmlns="http://www.w3.org/2000/svg">
<path d="M431 232.804L430.98 241.532L343.658 292.261L343.687 283.532L431 232.804Z" fill="#D3D3DD"/>
<path d="M343.687 283.532L343.658 292.261L255.772 241.532L255.802 232.804L343.687 283.532Z" fill="#E0DEE9"/>
<path d="M431 232.804L343.688 283.532L255.802 232.804L343.114 182.065L431 232.804Z" fill="#6E6E9C"/>
<path d="M417.38 100.495L417.01 231.453L343.522 274.153L343.892 143.195L417.38 100.495Z" fill="#D3D3DD"/>
<path d="M343.892 143.195L343.523 274.153L269.549 231.453L269.918 100.495L343.892 143.195Z" fill="#E0DEE9"/>
<path d="M417.379 100.495L343.892 143.195L269.918 100.495L343.415 57.8049L417.379 100.495Z" fill="#6E6E9C"/>
<path d="M288.983 157.756L288.954 171.334L277.142 164.521L277.18 150.942L288.983 157.756Z" fill="#2A313F"/>
<path d="M289.041 138.879L289.003 152.448L277.19 145.625L277.229 132.056L289.041 138.879Z" fill="#2A313F"/>
<path d="M289.099 119.984L289.05 133.563L277.248 126.749L277.277 113.17L289.099 119.984Z" fill="#2A313F"/>
<path d="M336.717 204.227L336.678 217.806L294.291 193.341L294.33 179.762L336.717 204.227Z" fill="#2A313F"/>
<path d="M336.766 185.341L336.737 198.92L294.35 174.455L294.389 160.876L336.766 185.341Z" fill="#2A313F"/>
<path d="M336.825 166.455L336.786 180.024L294.398 155.559L294.447 141.99L336.825 166.455Z" fill="#2A313F"/>
<path d="M336.873 147.569L336.843 161.148L294.456 136.683L294.495 123.104L336.873 147.569Z" fill="#2A313F"/>
<path d="M288.875 195.528L288.846 209.106L277.034 202.293L277.073 188.714L288.875 195.528Z" fill="#2A313F"/>
<path d="M288.934 176.651L288.895 190.23L277.083 183.407L277.122 169.828L288.934 176.651Z" fill="#2A313F"/>
<path d="M336.659 223.113L336.62 236.692L294.242 212.227L294.281 198.648L336.659 223.113Z" fill="#2A313F"/>
<path d="M362.548 159.787L362.587 173.366L350.765 180.189L350.727 166.611L362.548 159.787Z" fill="#2A313F"/>
<path d="M362.49 140.891L362.529 154.47L350.717 161.294L350.678 147.715L362.49 140.891Z" fill="#2A313F"/>
<path d="M410.487 188.869L410.526 202.439L368.139 226.904L368.1 213.335L410.487 188.869Z" fill="#2A313F"/>
<path d="M410.428 169.983L410.467 183.562L368.09 208.018L368.051 194.449L410.428 169.983Z" fill="#2A313F"/>
<path d="M410.38 151.097L410.418 164.667L368.031 189.132L367.992 175.563L410.38 151.097Z" fill="#2A313F"/>
<path d="M410.322 132.202L410.361 145.781L367.983 170.246L367.944 156.667L410.322 132.202Z" fill="#2A313F"/>
<path d="M410.273 113.316L410.312 126.895L367.925 151.36L367.886 137.781L410.273 113.316Z" fill="#2A313F"/>
<path d="M362.704 216.445L362.752 230.014L350.93 236.838L350.892 223.268L362.704 216.445Z" fill="#2A313F"/>
<path d="M362.655 197.559L362.694 211.138L350.872 217.961L350.843 204.382L362.655 197.559Z" fill="#2A313F"/>
<path d="M362.607 178.673L362.636 192.242L350.824 199.066L350.785 185.497L362.607 178.673Z" fill="#2A313F"/>
<path d="M417.039 220.887L417.01 231.453L343.522 274.153L343.483 263.344L417.039 220.887Z" fill="#9052FE"/>
<path d="M343.552 263.344L343.523 274.153L269.549 231.453L269.578 220.644L343.552 263.344Z" fill="#9052FE"/>
<path d="M343.066 102.235H343.902L348.102 104.665C345.097 105.574 341.891 105.574 338.886 104.665L343.066 102.235Z" fill="#2A313F"/>
<path d="M324.798 86.8384C335.492 81.6577 351.222 81.6577 361.994 86.8384L358.202 89.0449C349.54 85.0597 337.222 85.0597 328.619 89.0449L324.798 86.8384Z" fill="#2A313F"/>
<path d="M331.302 90.5904C339.072 87.4313 347.768 87.4313 355.538 90.5904L351.718 92.8066C346.37 90.8241 340.489 90.8241 335.142 92.8066L331.302 90.5904Z" fill="#2A313F"/>
<path d="M338.827 94.9352C341.838 94.0213 345.052 94.0213 348.063 94.9352L343.883 97.3652C343.598 97.3458 343.312 97.3458 343.027 97.3652L338.827 94.9352Z" fill="#2A313F"/>
<path d="M347.723 100.038C347.742 99.8768 347.742 99.7137 347.723 99.5522L351.903 97.132C352.275 97.4699 352.572 97.8819 352.775 98.3413C352.978 98.8008 353.083 99.2977 353.083 99.8001C353.083 100.303 352.978 100.799 352.775 101.259C352.572 101.718 352.275 102.13 351.903 102.468L347.723 100.038Z" fill="#2A313F"/>
<path d="M355.568 104.597C358.971 101.681 358.961 97.8805 355.52 95.0033L359.389 92.7775C364.862 96.9085 364.891 102.692 359.467 106.823L355.568 104.597Z" fill="#2A313F"/>
<path d="M331.371 95.0033C327.958 97.9193 327.987 101.72 331.429 104.597L327.608 106.823C322.135 102.692 322.096 96.9085 327.521 92.7775L331.371 95.0033Z" fill="#2A313F"/>
<path d="M362.101 108.368C368.906 103.372 368.906 96.228 362.004 91.232L365.795 89.0255C374.759 95.2463 374.817 104.344 365.912 110.565L362.101 108.368Z" fill="#2A313F"/>
<path d="M328.736 110.565C337.388 114.541 349.725 114.541 358.329 110.565L362.14 112.762C351.446 117.943 335.716 117.943 324.954 112.762L328.736 110.565Z" fill="#2A313F"/>
<path d="M324.847 91.232C317.993 96.2281 318.042 103.363 324.944 108.368L321.153 110.565C312.17 104.344 312.131 95.2464 321.026 89.0353L324.847 91.232Z" fill="#2A313F"/>
<path d="M335.23 106.794C340.562 108.767 346.425 108.767 351.757 106.794L355.646 109.01C347.872 112.168 339.173 112.168 331.399 109.01L335.23 106.794Z" fill="#2A313F"/>
<path d="M339.254 99.5522C339.23 99.7166 339.23 99.8836 339.254 100.048L335.084 102.468C334.709 102.132 334.41 101.72 334.205 101.261C334 100.801 333.894 100.303 333.894 99.8001C333.894 99.2968 334 98.7991 334.205 98.3394C334.41 97.8797 334.709 97.4683 335.084 97.132L339.254 99.5522Z" fill="#2A313F"/>
<path d="M302.924 306.948L302.895 315.676L215.583 366.415L215.602 357.686L302.924 306.948Z" fill="#D3D3DD"/>
<path d="M215.602 357.686L215.583 366.415L127.697 315.686L127.717 306.948L215.602 357.686Z" fill="#E0DEE9"/>
<path d="M302.923 306.948L215.602 357.686L127.716 306.948L215.038 256.219L302.923 306.948Z" fill="#6E6E9C"/>
<path d="M289.303 174.649L288.924 305.606L215.437 348.297L215.816 217.349L289.303 174.649Z" fill="#D3D3DD"/>
<path d="M215.816 217.349L215.437 348.297L141.473 305.597L141.842 174.649L215.816 217.349Z" fill="#E0DEE9"/>
<path d="M289.303 174.649L215.816 217.349L141.842 174.649L215.329 131.949L289.303 174.649Z" fill="#6E6E9C"/>
<path d="M160.907 231.909L160.868 245.488L149.056 238.665L149.095 225.086L160.907 231.909Z" fill="#2A313F"/>
<path d="M160.965 213.024L160.926 226.593L149.114 219.779L149.153 206.21L160.965 213.024Z" fill="#2A313F"/>
<path d="M161.014 194.138L160.975 207.716L149.163 200.893L149.202 187.314L161.014 194.138Z" fill="#2A313F"/>
<path d="M208.631 278.381L208.593 291.96L166.215 267.494L166.254 253.916L208.631 278.381Z" fill="#2A313F"/>
<path d="M208.69 259.495L208.651 273.074L166.273 248.599L166.303 235.03L208.69 259.495Z" fill="#2A313F"/>
<path d="M208.749 240.609L208.71 254.178L166.322 229.713L166.361 216.144L208.749 240.609Z" fill="#2A313F"/>
<path d="M208.796 221.713L208.758 235.292L166.38 210.827L166.419 197.258L208.796 221.713Z" fill="#2A313F"/>
<path d="M160.8 269.681L160.761 283.26L148.949 276.437L148.988 262.868L160.8 269.681Z" fill="#2A313F"/>
<path d="M160.858 250.795L160.819 264.374L149.007 257.561L149.046 243.982L160.858 250.795Z" fill="#2A313F"/>
<path d="M208.583 297.267L208.544 310.846L166.166 286.38L166.205 272.802L208.583 297.267Z" fill="#2A313F"/>
<path d="M234.472 233.931L234.511 247.51L222.689 254.334L222.65 240.755L234.472 233.931Z" fill="#2A313F"/>
<path d="M234.414 215.045L234.452 228.624L222.631 235.448L222.592 221.869L234.414 215.045Z" fill="#2A313F"/>
<path d="M282.401 263.023L282.44 276.592L240.062 301.058L240.023 287.488L282.401 263.023Z" fill="#2A313F"/>
<path d="M282.352 244.128L282.391 257.706L240.004 282.172L239.965 268.593L282.352 244.128Z" fill="#2A313F"/>
<path d="M282.295 225.251L282.334 238.82L239.956 263.286L239.917 249.707L282.295 225.251Z" fill="#2A313F"/>
<path d="M282.246 206.356L282.285 219.934L239.897 244.4L239.858 230.821L282.246 206.356Z" fill="#2A313F"/>
<path d="M282.187 187.47L282.226 201.048L239.848 225.504L239.81 211.925L282.187 187.47Z" fill="#2A313F"/>
<path d="M234.628 290.599L234.666 304.168L222.845 310.991L222.815 297.422L234.628 290.599Z" fill="#2A313F"/>
<path d="M234.579 271.703L234.608 285.282L222.796 292.105L222.757 278.527L234.579 271.703Z" fill="#2A313F"/>
<path d="M234.521 252.827L234.56 266.396L222.748 273.219L222.699 259.65L234.521 252.827Z" fill="#2A313F"/>
<path d="M288.963 295.041L288.934 305.597L215.446 348.297L215.417 337.488L288.963 295.041Z" fill="#9052FE"/>
<path d="M215.476 337.488L215.446 348.297L141.473 305.597L141.502 294.788L215.476 337.488Z" fill="#9052FE"/>
<path d="M214.99 176.379C215.265 176.399 215.541 176.399 215.816 176.379L220.026 178.809C217.022 179.723 213.814 179.723 210.81 178.809L214.99 176.379Z" fill="#2A313F"/>
<path d="M196.722 160.992C207.416 155.812 223.136 155.812 233.918 160.992L230.126 163.189C221.464 159.204 209.137 159.204 200.533 163.189L196.722 160.992Z" fill="#2A313F"/>
<path d="M203.217 164.735C210.992 161.585 219.688 161.585 227.463 164.735L223.642 166.96C218.292 164.977 212.408 164.977 207.057 166.96L203.217 164.735Z" fill="#2A313F"/>
<path d="M210.751 169.128C213.758 168.214 216.97 168.214 219.977 169.128L215.806 171.548H214.951L210.751 169.128Z" fill="#2A313F"/>
<path d="M219.598 174.192C219.617 174.031 219.617 173.868 219.598 173.706L223.778 171.276C224.149 171.615 224.444 172.027 224.647 172.486C224.849 172.946 224.954 173.442 224.954 173.944C224.954 174.446 224.849 174.943 224.647 175.402C224.444 175.861 224.149 176.274 223.778 176.612L219.598 174.192Z" fill="#2A313F"/>
<path d="M227.492 178.751C230.895 175.835 230.875 172.025 227.443 169.147L231.254 166.931C236.728 171.053 236.767 176.846 231.342 180.967L227.492 178.751Z" fill="#2A313F"/>
<path d="M203.285 169.128C199.882 172.044 199.911 175.854 203.343 178.731L199.522 180.948C194.049 176.826 194.02 171.033 199.445 166.912L203.285 169.128Z" fill="#2A313F"/>
<path d="M233.976 182.513C240.781 177.526 240.781 170.382 233.879 165.386L237.67 163.179C246.644 169.4 246.702 178.498 237.787 184.719L233.976 182.513Z" fill="#2A313F"/>
<path d="M200.66 184.68C209.302 188.656 221.64 188.656 230.243 184.68L234.054 186.877C223.36 192.058 207.64 192.058 196.868 186.877L200.66 184.68Z" fill="#2A313F"/>
<path d="M196.761 165.386C189.955 170.372 189.955 177.516 196.858 182.512L193.076 184.68C184.093 178.459 184.045 169.361 192.95 163.141L196.761 165.386Z" fill="#2A313F"/>
<path d="M207.144 180.938C212.476 182.911 218.339 182.911 223.671 180.938L227.56 183.164C219.79 186.323 211.093 186.323 203.323 183.164L207.144 180.938Z" fill="#2A313F"/>
<path d="M211.179 173.706C211.15 173.867 211.15 174.031 211.179 174.192L206.998 176.622C206.625 176.284 206.326 175.872 206.122 175.411C205.918 174.951 205.813 174.453 205.812 173.949C205.813 173.445 205.918 172.947 206.122 172.487C206.326 172.027 206.625 171.614 206.998 171.276L211.179 173.706Z" fill="#2A313F"/>
<g opacity="0.4">
<g opacity="0.4">
<path opacity="0.4" d="M372.494 445.477C374.303 440.617 367.954 433.745 358.31 430.168C348.666 426.591 339.382 427.68 337.573 432.54C335.765 437.4 342.113 444.272 351.757 447.859C361.402 451.445 370.676 450.376 372.494 445.497" fill="#D6D8E5"/>
</g>
</g>
<g opacity="0.4">
<g opacity="0.4">
<path opacity="0.4" d="M239.013 364.85C241.424 370.089 251.758 370.487 262.112 365.744C272.466 361.001 278.902 352.904 276.5 347.665C274.099 342.426 263.765 342.027 253.411 346.771C243.057 351.514 236.611 359.611 239.013 364.85Z" fill="#D6D8E5"/>
</g>
</g>
<path d="M354.693 319.652C355.578 318.223 362.344 317.29 364.571 323.025C365.416 325.202 365.29 330.801 366 334.251C366.709 337.702 368.362 339.724 368.965 342.562C369.568 345.4 368.586 350.144 361.761 350.98C354.936 351.815 349.677 349.424 348.063 347.247C346.449 345.07 346.41 340.443 348.063 337.955C349.716 335.466 350.979 333.454 350.979 330.179L354.693 319.652Z" fill="#3A2C6D"/>
<path d="M359.165 318.661C359.165 318.661 354.061 317.193 350.969 319.944C349.951 320.884 349.21 322.085 348.826 323.416C348.443 324.747 348.43 326.158 348.791 327.496C349.209 329.11 350.026 331.306 351.309 331.384C352.593 331.462 359.165 318.622 359.165 318.622" fill="#3A2C6D"/>
<path d="M361.11 332.56C361.11 332.56 360.779 338.246 360.876 338.664C360.974 339.082 363.112 339.481 363.705 339.976C364.299 340.472 360.614 346.236 358.738 347.091C356.861 347.947 351.067 345.76 350.659 342.873C350.289 340.219 352.321 338.149 353.109 337.43C353.639 337.394 354.172 337.394 354.703 337.43L354.878 334.679C357.415 333.863 361.11 332.599 361.11 332.599" fill="#FFCEA9"/>
<path d="M347.372 343.291C347.372 343.136 346.516 343.592 346.497 343.602C346.478 343.612 346.098 358.182 345.379 359.504C343.561 362.595 338.739 367.834 338.622 368.417C338.272 370.186 339.293 368.602 340.946 368.417C341.918 368.301 347.353 362.76 348.587 361.497L348.665 361.545C348.665 361.497 348.665 361.448 348.665 361.399L348.83 361.234C348.859 360.843 348.859 360.45 348.83 360.058C351.096 344.244 348.296 343.184 347.314 343.301" fill="#FFCEA9"/>
<path d="M361.888 339.228C363.482 339.481 365.31 340.326 365.563 341.172C366.22 344.322 366.063 347.587 365.106 350.659C363.725 354.313 362.792 356.637 361.995 358.211C361.995 358.211 355.092 361.127 349.521 357.725C349.521 357.725 349.142 353.837 349.113 351.709C343.97 347.228 348.365 341.697 352.72 337.401C353.244 337.357 353.771 337.357 354.295 337.401C354.295 337.401 350.406 341.989 353.109 344.603C358.893 342.854 360.041 340.258 361.859 339.218" fill="#F4F4F4"/>
<path d="M350.493 325.523C351.067 321.878 353.711 319.117 357.474 319.341C358.986 319.425 360.434 319.983 361.613 320.934C362.792 321.886 363.642 323.183 364.044 324.644C364.446 326.104 364.379 327.654 363.852 329.075C363.326 330.495 362.366 331.714 361.109 332.56C360.98 333.113 360.785 333.648 360.526 334.154C359.194 335.709 355.665 336.691 354.489 336.711C353.517 336.711 352.603 335.739 351.66 334.213C349.715 330.947 350.182 327.321 350.493 325.523Z" fill="#FFCEA9"/>
<path d="M358.64 319.399C361.275 319.924 363.453 320.663 364.162 323.287C364.658 325.066 365.3 328.478 364.687 329.907L364.308 330.947L361.11 332.589C361.11 332.589 359.622 331.345 360.079 327.729C360.067 327.236 359.912 326.756 359.632 326.349C359.432 326.007 359.285 325.636 359.194 325.251C358.816 324.266 358.075 323.463 357.124 323.005C354.742 321.674 351.291 322.83 350.766 323.307C351.432 321.853 352.578 320.672 354.012 319.964C355.446 319.256 357.081 319.064 358.64 319.419" fill="#3A2C6D"/>
<path d="M363.442 434.824C362.111 435.913 360.03 435.164 359.923 435.262C358.372 436.597 356.75 437.846 355.062 439.004C354.226 439.655 352.933 440.53 353.166 441.793C353.584 444.039 357.191 443.349 358.552 442.659C359.913 441.968 361.022 440.831 362.305 440.034C363.229 439.461 364.133 439.169 364.249 438.003C364.337 437.303 363.685 434.805 363.452 434.824" fill="#38226D"/>
<path d="M364.249 437.536C364.065 438.654 363.18 438.955 362.305 439.48C360.992 440.297 359.845 441.424 358.484 442.153C357.123 442.882 354.1 443.426 353.215 441.813C353.691 443.99 357.23 443.3 358.581 442.62C359.933 441.939 361.051 440.792 362.334 439.995C363.258 439.422 364.162 439.13 364.278 437.964C364.297 437.809 364.297 437.652 364.278 437.497" fill="#9C73FF"/>
<path d="M354.071 432.958C352.846 433.93 350.999 433.395 350.902 433.483C349.475 434.701 347.982 435.84 346.43 436.895C345.671 437.488 344.485 438.294 344.689 439.451C345.078 441.512 348.384 440.88 349.628 440.248C350.872 439.616 351.893 438.566 353.07 437.837C353.906 437.313 354.732 437.04 354.868 435.981C354.829 434.927 354.557 433.894 354.071 432.958Z" fill="#38226D"/>
<path d="M354.849 435.553C354.684 436.525 353.877 436.856 353.041 437.371C351.835 438.11 350.785 439.188 349.541 439.82C348.296 440.452 345.516 440.977 344.68 439.509C345.117 441.453 348.364 440.87 349.599 440.248C350.834 439.626 351.854 438.566 353.041 437.837C353.877 437.313 354.703 437.04 354.839 435.981C354.852 435.839 354.852 435.695 354.839 435.553" fill="#9C73FF"/>
<path d="M346.867 370.799C347.451 366.191 349.152 359.504 349.152 359.504C350.757 360.256 352.495 360.686 354.266 360.768C356.86 360.758 359.447 360.507 361.995 360.019C362.827 361.472 363.736 362.88 364.717 364.238C366.049 366.075 368.605 370.07 368.012 377.175C367.604 381.792 365.018 401.378 365.018 401.378C366.022 404.672 366.556 408.092 366.603 411.535C366.36 415.625 365.821 419.692 364.989 423.705L363.443 434.824C363.443 434.824 361.392 436.311 359.924 435.262L360.109 424.385C359.934 421.722 359.671 417.785 359.506 415.277C359.224 411.195 358.534 404.702 358.281 403.088C358.028 401.475 357.552 398.637 357.309 395.458C357.066 392.28 355.86 376.164 355.86 376.164L355.695 379.187C355.695 379.187 355.539 384.047 354.83 390.132C354.12 396.216 353.857 398.88 353.857 398.88C354.522 400.094 354.988 401.406 355.238 402.768C355.364 404.08 356.861 414.432 355.967 419.68L354.13 433.055C353.673 433.369 353.149 433.571 352.6 433.643C352.051 433.716 351.492 433.658 350.97 433.473L349.891 419.991C349.162 414.859 347.635 403.992 347.392 402.573C346.879 399.725 346.573 396.844 346.478 393.952C346.129 388.12 346.255 375.406 346.848 370.799" fill="#FFCEA9"/>
<path d="M361.994 358.221L365.96 366.191C365.96 366.191 372.017 375.056 365.747 397.83L366.923 404.857C366.923 404.857 355.043 412.478 347.1 404.857C347.1 404.857 344.339 383.814 345.807 374.103C346.62 368.509 347.859 362.985 349.511 357.579C349.511 357.579 351.455 359.727 361.469 358.308" fill="#FF7B7B"/>
<path d="M352.72 337.41C352.72 337.41 349.57 336.438 346.216 343.437L347.47 344.185C347.47 344.185 350.766 339.209 352.72 337.381" fill="#EDEDED"/>
<path d="M328.104 375.289L341.666 367.406L351.407 373.024L337.835 380.907L328.104 375.289Z" fill="#F4F4F4"/>
<path d="M339.945 367.98C339.095 368.07 338.273 368.338 337.534 368.767C337.27 369.005 336.984 369.217 336.679 369.399C336.542 369.467 336.416 369.554 336.27 369.613C336.062 369.681 335.877 369.805 335.735 369.972C335.582 370.192 335.497 370.453 335.492 370.721C335.445 371.043 335.445 371.371 335.492 371.693C335.609 372.179 336.115 372.15 336.387 371.809C336.514 371.636 336.592 371.431 336.61 371.217C336.615 371.01 336.67 370.807 336.77 370.626C336.869 370.445 337.012 370.291 337.184 370.176L340.421 368.164C340.38 368.091 340.316 368.032 340.239 367.998C340.162 367.963 340.076 367.953 339.994 367.97" fill="#FFCEA9"/>
<path d="M365.727 343.68C365.28 341.833 363.832 342.426 362.597 341.347C359.68 345.429 361.625 356.471 362.014 357.648L350.941 364.704L350.202 365.171C348.935 365.989 347.543 366.594 346.08 366.959C344.971 367.086 344.398 368.641 343.212 368.787C343.122 368.789 343.034 368.819 342.961 368.871C342.887 368.923 342.831 368.996 342.799 369.08C342.767 369.164 342.76 369.256 342.78 369.344C342.8 369.432 342.845 369.512 342.91 369.574C343.387 370.031 344.65 369.652 345.516 368.602C345.516 368.602 345.516 368.651 345.516 368.68C345.526 368.842 345.577 368.999 345.663 369.137C345.75 369.274 345.87 369.388 346.011 369.467C346.077 369.495 346.145 369.515 346.216 369.525C346.217 369.6 346.237 369.674 346.274 369.739C346.338 369.866 346.431 369.975 346.546 370.058C346.661 370.141 346.795 370.195 346.935 370.215C346.993 370.405 347.117 370.568 347.285 370.675C347.452 370.782 347.652 370.826 347.849 370.799C348.1 370.787 348.337 370.679 348.51 370.497C349.455 370.134 350.289 369.531 350.931 368.748C351.232 368.369 352.292 367.474 352.729 367.076C355.733 365.793 364.746 361.944 365.144 361.39C365.747 360.573 366.379 346.265 365.737 343.631" fill="#FFCEA9"/>
<path d="M366.738 348.647C366.738 348.647 363.19 350.241 360.254 348.754L360.682 343.213C360.682 343.213 360.682 340.229 363.384 339.938C366.087 339.646 367.399 343.048 366.738 348.686" fill="#EDEDED"/>
<path d="M251.816 38.88L252.098 38.7536C252.468 38.5981 252.837 38.462 253.207 38.3357H253.275C253.615 38.219 253.955 38.1218 254.247 38.0246H254.461C254.992 37.8776 255.53 37.7608 256.075 37.6747H256.191C256.609 37.6164 257.027 37.5775 257.436 37.5581H257.679C258.067 37.5581 258.447 37.5581 258.826 37.5581H259.069C259.36 37.5581 259.642 37.6164 259.924 37.6553H260.187C260.517 37.7136 260.848 37.7913 261.159 37.8788H261.276C261.55 37.9582 261.819 38.0523 262.083 38.1607L262.345 38.2773L263.055 38.6175L263.298 38.7439L229.495 19.0998L229.388 19.0415L229.252 18.9734L228.542 18.6332L228.406 18.5652L228.289 18.5166C228.017 18.4097 227.745 18.3125 227.473 18.2347H227.376C227.055 18.1472 226.734 18.0695 226.403 18.0111H226.306L226.141 18.0111C225.859 18.0111 225.577 17.9334 225.285 17.9139H225.12H225.042C224.663 17.9139 224.284 17.9139 223.895 17.9139H223.808H223.652C223.244 17.9139 222.835 17.9723 222.408 18.0306H222.31C221.766 18.1166 221.227 18.2335 220.697 18.3805H220.57H220.483C220.142 18.4777 219.802 18.5749 219.511 18.6915H219.442C219.073 18.8179 218.704 18.954 218.334 19.1095H218.247L218.052 19.2067C217.712 19.3525 217.362 19.508 217.012 19.683C216.895 19.7413 216.769 19.7899 216.652 19.8579C216.215 20.0718 215.777 20.3051 215.34 20.5675L249.201 40.2408C249.639 39.9783 250.076 39.7451 250.514 39.5312L250.873 39.3563C251.223 39.1813 251.564 39.0258 251.914 38.88" fill="#6E6E9C"/>
<path d="M232.032 31.6095C232.596 31.3568 233.16 31.1235 233.704 30.9291H233.782C234.254 30.7705 234.734 30.6375 235.221 30.5306C235.493 30.4593 235.765 30.401 236.037 30.3556C236.358 30.2872 236.683 30.2353 237.009 30.2001L237.593 30.1418C238.021 30.1418 238.439 30.1418 238.847 30.1418H239.129C239.612 30.1728 240.092 30.2344 240.568 30.3265L240.918 30.4042C241.28 30.4886 241.636 30.5924 241.987 30.7153L242.318 30.8319C242.758 31.0004 243.184 31.2053 243.591 31.4443L209.827 11.7127L209.72 11.6543C209.405 11.4784 209.08 11.3194 208.748 11.1781L208.554 11.11L208.223 10.9934L207.717 10.8087L207.144 10.6921L206.794 10.6143H206.609C206.22 10.5454 205.827 10.4967 205.433 10.4685H205.073C204.772 10.4685 204.461 10.4685 204.101 10.4685C203.994 10.4685 203.887 10.4685 203.77 10.4685L203.187 10.5365C203.012 10.5365 202.837 10.5365 202.652 10.5365L202.166 10.6435C201.894 10.6888 201.622 10.7471 201.35 10.8184L200.922 10.9059C200.591 10.9934 200.251 11.1003 199.95 11.2169H199.872C199.493 11.353 199.104 11.4988 198.705 11.6641L198.2 11.8876L197.723 12.1112C197.13 12.3833 196.537 12.6847 195.935 13.0346C195.332 13.3845 194.476 13.9288 193.757 14.444L227.618 34.1173C228.328 33.6118 229.057 33.1453 229.796 32.7079C230.535 32.2705 230.992 32.0566 231.585 31.7845L232.061 31.5706" fill="#6E6E9C"/>
<path d="M200.048 22.0158L200.563 21.7923C201.068 21.5881 201.535 21.3937 202.07 21.2188L202.352 21.1119C202.945 20.9175 203.528 20.7328 204.111 20.5773C204.442 20.4801 204.782 20.4023 205.083 20.3245L205.579 20.2079C206.056 20.101 206.551 20.0232 206.989 19.9455H207.067C207.533 19.8774 208.039 19.8288 208.447 19.7802H208.885H209.692C210.323 19.7461 210.956 19.7461 211.587 19.7802H211.918C212.414 19.7802 212.89 19.8774 213.396 19.9552L213.853 20.0329C214.41 20.1276 214.962 20.2542 215.505 20.412H215.573C216.078 20.5607 216.575 20.7359 217.061 20.9369L217.479 21.1119C217.897 21.2965 218.295 21.4909 218.694 21.7048L219.083 21.9089L185.231 2.20646L185.056 2.10926L184.842 2.00234C184.454 1.7885 184.045 1.5941 183.627 1.40942L183.423 1.3025L183.229 1.23446C182.742 1.03344 182.246 0.858238 181.741 0.709583H181.693C181.143 0.544436 180.585 0.411371 180.02 0.311063L179.826 0.311063L179.563 0.311063C179.077 0.233303 178.591 0.174983 178.086 0.136103C178.005 0.140861 177.924 0.140861 177.843 0.136103L177.765 0.136103C177.117 0.100628 176.468 0.100628 175.821 0.136103L175.646 0.136103L175.023 0.136103L174.586 0.136103C174.139 0.184703 173.672 0.233303 173.215 0.301343L173.147 0.301343C172.68 0.369383 172.175 0.456863 171.737 0.563783C171.562 0.563783 171.397 0.641543 171.232 0.680423C171.067 0.719303 170.629 0.816503 170.328 0.903983H170.23C169.647 1.0595 169.064 1.24418 168.471 1.43858L168.189 1.5455C167.693 1.72046 167.217 1.91486 166.682 2.11898L166.517 2.1773C166.4 2.1773 166.283 2.29394 166.167 2.33282C165.632 2.5661 165.097 2.8091 164.553 3.07154L163.96 3.36314C163.26 3.71306 162.56 4.08242 161.86 4.49066C160.888 5.0447 159.916 5.64734 159.002 6.27914C158.671 6.5027 158.36 6.75542 158.03 6.9887C157.427 7.41638 156.814 7.84406 156.221 8.3009C155.842 8.5925 155.482 8.91326 155.113 9.2729C154.578 9.70058 154.044 10.1283 153.519 10.5851C152.994 11.0419 152.76 11.2947 152.371 11.6543C151.983 12.0139 151.399 12.5485 150.903 13.0248L150.835 13.0831C150.109 13.8154 149.39 14.5638 148.677 15.3285L148.094 15.9797C147.822 16.281 147.549 16.5726 147.277 16.8837C147.005 17.1947 146.927 17.3113 146.752 17.5252C146.247 18.1278 145.78 18.7305 145.255 19.3428C145.061 19.5955 144.847 19.8288 144.643 20.0913C144.438 20.3537 144.361 20.4801 144.215 20.6745C143.845 21.1507 143.495 21.6465 143.136 22.1325C142.912 22.4435 142.679 22.7351 142.465 23.0461C142.251 23.3572 142.173 23.4933 142.018 23.7071C141.726 24.1348 141.434 24.5722 141.152 25.0096C140.87 25.447 140.744 25.5928 140.55 25.8941L140.025 26.7592L139.286 27.9645L138.858 28.674C138.615 29.0823 138.401 29.4905 138.168 29.8987L137.555 31.0068L137.312 31.4442C136.982 32.0663 136.671 32.6981 136.34 33.3299L135.961 34.0881L135.883 34.2436C135.426 35.2156 134.998 36.1293 134.58 37.0818L134.522 37.2276C134.405 37.4901 134.308 37.7622 134.191 38.0344C133.919 38.6953 133.637 39.3466 133.385 39.9784C133.326 40.1145 133.287 40.2408 133.239 40.3769C133.073 40.8046 132.928 41.242 132.772 41.6697C132.617 42.0973 132.422 42.6417 132.267 43.0693C132.208 43.2637 132.16 43.4484 132.101 43.6331C131.926 44.1677 131.771 44.7023 131.605 45.2369C131.44 45.7715 131.353 46.0242 131.246 46.4227C131.197 46.6074 131.158 46.7921 131.11 46.9865C130.925 47.6863 130.76 48.3765 130.594 49.0763C130.507 49.4457 130.4 49.815 130.322 50.1747C130.244 50.5343 130.196 50.7773 130.137 51.0786C129.797 51.273 129.447 51.448 129.097 51.6521C128.358 52.0798 127.639 52.5463 126.92 53.0226L126.55 53.2656C125.86 53.7322 125.179 54.2376 124.508 54.7431L124.12 55.0541C123.439 55.5887 122.768 56.133 122.107 56.7162L121.932 56.8717C121.291 57.4355 120.668 58.0284 120.046 58.6311L119.852 58.806L119.735 58.9324C119.259 59.3989 118.763 59.9044 118.325 60.3709L118.257 60.4487C117.82 60.925 117.382 61.4207 116.955 61.8873L116.838 62.0233L116.682 62.208C115.992 63.0148 115.312 63.841 114.65 64.6866L114.592 64.7547L114.446 64.9588C113.921 65.6392 113.406 66.339 112.91 67.0389L112.755 67.2527C112.726 67.2845 112.704 67.3206 112.687 67.3596C112.201 68.04 111.714 68.7399 111.287 69.4397L111.151 69.6438C111.083 69.744 111.022 69.8479 110.966 69.9549C110.596 70.5316 110.237 71.1148 109.887 71.7045C109.837 71.7986 109.782 71.8895 109.722 71.9766L109.663 72.0835C109.265 72.7639 108.885 73.4541 108.516 74.1442L108.428 74.3094L108.253 74.6496C107.962 75.2004 107.68 75.7545 107.408 76.3117L107.233 76.6617C107.204 76.7315 107.172 76.7997 107.135 76.8658C106.805 77.5753 106.474 78.2752 106.163 78.9945V79.0528L106.076 79.2861C105.794 79.9276 105.531 80.5691 105.279 81.2301L105.152 81.5508C105.152 81.6286 105.094 81.7258 105.055 81.8133C104.763 82.5714 104.491 83.3393 104.229 84.1072L104.18 84.2433C103.918 85.0403 103.684 85.8373 103.451 86.6247C103.428 86.7267 103.398 86.8273 103.363 86.926C103.367 86.981 103.367 87.0362 103.363 87.0912C103.111 88.0049 102.887 88.9283 102.683 89.8517L102.625 90.0947C102.625 90.2211 102.576 90.3377 102.556 90.4543C102.479 90.814 102.411 91.1833 102.352 91.543C102.294 91.9026 102.255 92.0387 102.216 92.2914C102.177 92.5441 102.1 93.0301 102.041 93.4092C102.041 93.5842 101.993 93.7591 101.963 93.9341C101.968 93.9794 101.968 94.0249 101.963 94.0702C101.866 94.8575 101.788 95.6545 101.73 96.4321V96.9376C101.73 97.7443 101.652 98.5511 101.652 99.3384C101.652 105.336 103.13 110.108 105.648 113.442C106.751 114.909 108.132 116.144 109.712 117.077L143.573 136.741C138.615 133.825 135.533 127.731 135.514 119.012C135.514 118.224 135.514 117.418 135.591 116.611V116.115C135.65 115.328 135.728 114.531 135.825 113.743L135.912 113.083C135.971 112.703 136.019 112.334 136.087 111.965C136.155 111.595 136.175 111.469 136.214 111.216C136.253 110.964 136.35 110.487 136.428 110.128C136.428 109.924 136.515 109.729 136.554 109.525C136.758 108.611 136.982 107.688 137.234 106.765C137.234 106.609 137.322 106.453 137.361 106.298C137.594 105.501 137.827 104.704 138.09 103.917L138.148 103.742C138.401 102.964 138.683 102.206 138.975 101.438C139.043 101.244 139.12 101.049 139.198 100.855C139.451 100.213 139.714 99.562 139.986 98.9108C140.034 98.8135 140.073 98.7163 140.112 98.6191C140.423 97.8999 140.754 97.2 141.084 96.4905L141.356 95.9364C141.629 95.3856 141.911 94.8316 142.202 94.2743L142.465 93.7689C142.834 93.0788 143.213 92.3886 143.612 91.7179L143.845 91.3291C144.186 90.7362 144.545 90.153 144.915 89.5698L145.236 89.0644C145.683 88.3645 146.149 87.6647 146.635 86.9746L146.849 86.6733C147.355 85.9637 147.87 85.2639 148.395 84.5835L148.599 84.3113C149.26 83.4657 149.941 82.6395 150.631 81.8327L150.903 81.5119C151.331 81.0259 151.769 80.5399 152.206 80.0831L152.274 79.9956C152.741 79.5096 153.246 79.0236 153.684 78.5571L153.995 78.2557C154.617 77.6531 155.249 77.0602 155.881 76.4964L156.056 76.3409C156.704 75.7642 157.375 75.2101 158.068 74.6788L158.457 74.3677C159.128 73.8526 159.809 73.3957 160.499 72.8903L160.859 72.6473C161.578 72.171 162.307 71.6753 163.036 71.2865L164.086 70.7033C164.222 70.0423 164.388 69.3717 164.543 68.701C164.699 68.0303 164.874 67.311 165.058 66.6112C165.243 65.9113 165.379 65.4448 165.554 64.8616C165.729 64.2784 165.875 63.7924 166.05 63.2578C166.225 62.7232 166.488 61.9553 166.721 61.3138C166.876 60.8764 167.022 60.439 167.188 60.0113C167.489 59.2143 167.81 58.4269 168.16 57.6396C168.276 57.3675 168.374 57.0856 168.49 56.8231C168.947 55.7637 169.462 54.7236 169.929 53.6836L170.318 52.9254C170.697 52.1478 171.096 51.3702 171.514 50.6023C171.718 50.233 171.922 49.8636 172.136 49.4943C172.499 48.8463 172.868 48.1983 173.244 47.5503C173.487 47.142 173.73 46.7338 173.983 46.3353C174.353 45.7423 174.722 45.1591 175.111 44.5857C175.5 44.0122 175.684 43.7109 175.976 43.2832C176.268 42.8555 176.618 42.282 177.016 41.796C177.415 41.31 177.726 40.824 178.095 40.3283C178.465 39.8326 178.786 39.4438 179.136 39.0064C179.632 38.394 180.108 37.7914 180.633 37.1887C181.158 36.5861 181.518 36.1487 181.975 35.6433C182.169 35.4197 182.363 35.2059 182.568 34.992C183.287 34.2015 184.026 33.4336 184.784 32.6884C185.27 32.2121 185.756 31.7164 186.272 31.2984C186.787 30.8805 187.01 30.5889 187.399 30.2584C187.788 29.9279 188.469 29.3641 189.003 28.917C189.373 28.6157 189.733 28.3047 190.102 28.0131C190.695 27.5562 191.308 27.1285 191.92 26.6911L192.892 25.9913C193.864 25.3595 194.837 24.7569 195.75 24.2028C196.45 23.7946 197.15 23.4252 197.85 23.0753L198.443 22.7837C198.988 22.5213 199.523 22.2783 200.057 22.0547" fill="#6E6E9C"/>
<path d="M195.74 24.164C211.052 15.3285 223.934 19.9552 227.628 34.1562C228.329 33.6492 229.056 33.1788 229.806 32.7468C239.46 27.1772 247.48 30.6084 249.104 40.27C260.226 33.8354 268.975 38.8801 268.975 51.2536C268.975 62.7427 261.519 76.5256 251.826 83.4754C251.029 84.0392 250.27 84.5446 249.493 84.9918C248.768 85.411 248.022 85.7907 247.257 86.129L163.123 134.846C147.85 143.662 135.435 136.595 135.387 119.041C135.338 101.487 147.666 80.1609 162.939 71.3254C163.298 71.1116 163.639 70.9366 163.989 70.7422C167.605 52.4006 180.419 32.9898 195.701 24.164" fill="#D3D3DD"/>
<path d="M302.253 95.1783C300.726 97.9046 298.872 100.434 296.731 102.711C296.128 103.401 291.53 101.652 292.492 101.156C293.455 100.66 296.469 96.4613 297.975 93.662C299.241 90.3171 300.315 86.9031 301.193 83.4365C302.166 80.0151 302.953 74.9898 303.643 72.6182C303.822 71.7411 304.25 70.9342 304.876 70.2945C305.502 69.6548 306.299 69.2094 307.172 69.012C308.825 68.633 309.894 69.0801 309.593 71.0824C309.068 74.601 306.317 88.2576 302.253 95.1588" fill="#FFCEA9"/>
<path d="M304.887 148.716C303.468 149.882 301.358 148.823 301.261 148.93C299.583 150.48 297.824 151.94 295.992 153.304C295.107 154.004 293.717 154.947 293.97 156.288C294.417 158.689 298.267 157.95 299.715 157.211C301.164 156.473 302.35 155.267 303.73 154.412C304.703 153.8 305.675 153.489 305.821 152.244C305.918 151.506 305.15 148.687 304.848 148.716" fill="#38226D"/>
<path d="M305.801 151.7C305.617 152.886 304.664 153.216 303.692 153.819C302.301 154.684 301.067 155.938 299.618 156.667C298.17 157.396 294.932 158.018 293.989 156.307C294.505 158.621 298.277 157.892 299.715 157.163C301.154 156.434 302.35 155.219 303.731 154.363C304.703 153.751 305.675 153.44 305.821 152.196C305.844 152.031 305.844 151.865 305.821 151.7" fill="#9C73FF"/>
<path d="M290.431 140.337C289.002 141.504 286.542 140.23 286.396 140.337C284.918 141.846 283.35 143.265 281.701 144.585C280.806 145.285 279.426 146.218 279.669 147.559C280.126 149.97 283.966 149.231 285.424 148.531C286.883 147.832 288.059 146.587 289.43 145.722C290.402 145.12 291.374 144.799 291.53 143.564C291.617 142.816 290.684 140.347 290.431 140.376" fill="#38226D"/>
<path d="M291.491 143.195C291.296 144.381 290.344 144.711 289.371 145.314C287.981 146.179 286.747 147.433 285.298 148.162C283.849 148.891 280.612 149.513 279.669 147.802C280.184 150.116 283.966 149.387 285.395 148.667C286.824 147.948 288.03 146.723 289.41 145.858C290.382 145.246 291.355 144.935 291.501 143.7C291.519 143.533 291.519 143.363 291.501 143.195" fill="#9C73FF"/>
<path d="M323.962 102.964C325.547 112.839 321.153 116.523 315.456 118.623C311.363 120.129 305.491 122.453 305.491 122.453C305.491 122.453 305.578 124.62 305.617 129.48C305.666 133.767 305.092 149.396 305.092 149.396C304.417 149.744 303.669 149.926 302.91 149.926C302.15 149.926 301.402 149.744 300.727 149.396C300.727 149.396 298.433 137.421 297.947 132.027C297.285 124.698 296.158 119.906 296.537 118.331C296.858 116.941 304.869 113.005 307.416 110.895L290.636 116.514C290.969 118.335 291.132 120.183 291.122 122.035C290.966 127.867 290.645 140.425 290.645 140.425C290.645 140.425 288.341 142.087 286.378 140.425C286.378 140.425 282.158 115.522 282.674 112.237C283.16 109.107 297.947 102.721 300.542 100.515C300.997 100.145 301.525 99.8752 302.091 99.7228C302.657 99.5704 303.249 99.5388 303.828 99.63L323.962 102.964Z" fill="#8C50FF"/>
<path d="M283.733 107.085L295.001 100.573C295.1 100.516 295.212 100.486 295.327 100.486C295.441 100.486 295.553 100.516 295.652 100.573L315.427 111.994L303.829 118.681L283.733 107.085Z" fill="#F4F4F4"/>
<path d="M304.353 116.29L305.218 116.786C305.286 116.786 305.277 116.903 305.218 116.941L304.392 117.418C304.35 117.439 304.303 117.45 304.256 117.45C304.209 117.45 304.162 117.439 304.12 117.418L303.264 116.922C303.196 116.922 303.206 116.815 303.264 116.766L304.081 116.29C304.123 116.269 304.17 116.258 304.217 116.258C304.264 116.258 304.311 116.269 304.353 116.29Z" fill="#3A2C6D"/>
<path d="M303.138 115.59L304.003 116.086C304.071 116.086 304.061 116.193 304.003 116.241L303.177 116.718C303.135 116.739 303.088 116.75 303.041 116.75C302.993 116.75 302.947 116.739 302.905 116.718L302.049 116.222C301.981 116.222 301.981 116.115 302.049 116.066L302.866 115.59C302.908 115.569 302.955 115.558 303.002 115.558C303.049 115.558 303.096 115.569 303.138 115.59Z" fill="#3A2C6D"/>
<path d="M301.913 114.881L302.768 115.376C302.836 115.376 302.827 115.483 302.768 115.532L301.952 116.008C301.909 116.03 301.863 116.041 301.815 116.041C301.768 116.041 301.722 116.03 301.679 116.008L300.814 115.513C300.746 115.513 300.756 115.396 300.814 115.357L301.64 114.881C301.683 114.859 301.729 114.848 301.777 114.848C301.824 114.848 301.87 114.859 301.913 114.881Z" fill="#3A2C6D"/>
<path d="M300.708 114.181L301.563 114.677C301.641 114.677 301.631 114.793 301.563 114.842L300.746 115.308C300.705 115.332 300.658 115.345 300.61 115.345C300.563 115.345 300.516 115.332 300.474 115.308L299.609 114.813C299.541 114.813 299.551 114.706 299.609 114.657L300.426 114.191C300.468 114.169 300.514 114.158 300.562 114.158C300.609 114.158 300.656 114.169 300.698 114.191" fill="#3A2C6D"/>
<path d="M299.492 113.481L300.347 113.977C300.415 113.977 300.415 114.093 300.347 114.132L299.531 114.609C299.488 114.63 299.442 114.641 299.395 114.641C299.347 114.641 299.301 114.63 299.258 114.609L298.393 114.113C298.325 114.113 298.335 114.006 298.393 113.957L299.22 113.481C299.262 113.46 299.308 113.449 299.356 113.449C299.403 113.449 299.45 113.46 299.492 113.481Z" fill="#3A2C6D"/>
<path d="M298.277 112.752L299.132 113.248C299.2 113.248 299.191 113.355 299.132 113.403L298.316 113.88C298.274 113.901 298.227 113.912 298.18 113.912C298.132 113.912 298.086 113.901 298.044 113.88L297.178 113.384C297.11 113.384 297.12 113.277 297.178 113.228L298.005 112.752C298.047 112.731 298.093 112.72 298.141 112.72C298.188 112.72 298.235 112.731 298.277 112.752Z" fill="#3A2C6D"/>
<path d="M297.062 112.081L297.918 112.577C297.986 112.577 297.976 112.684 297.918 112.733L297.101 113.209C297.056 113.228 297.008 113.238 296.96 113.238C296.912 113.238 296.864 113.228 296.819 113.209L295.963 112.713C295.895 112.713 295.905 112.597 295.963 112.558L296.79 112.081C296.831 112.057 296.878 112.045 296.926 112.045C296.974 112.045 297.021 112.057 297.062 112.081Z" fill="#3A2C6D"/>
<path d="M295.846 111.372L296.702 111.867C296.77 111.867 296.76 111.984 296.702 112.033L295.885 112.499C295.842 112.523 295.793 112.536 295.744 112.536C295.695 112.536 295.646 112.523 295.603 112.499L294.748 112.004C294.68 112.004 294.689 111.897 294.748 111.848L295.564 111.381C295.608 111.36 295.656 111.349 295.705 111.349C295.754 111.349 295.802 111.36 295.846 111.381" fill="#3A2C6D"/>
<path d="M294.622 110.672L295.487 111.168C295.555 111.168 295.545 111.284 295.487 111.323L294.661 111.8C294.618 111.821 294.572 111.832 294.524 111.832C294.477 111.832 294.431 111.821 294.388 111.8L293.533 111.304C293.465 111.304 293.474 111.197 293.533 111.148L294.349 110.672C294.392 110.651 294.438 110.64 294.486 110.64C294.533 110.64 294.579 110.651 294.622 110.672Z" fill="#3A2C6D"/>
<path d="M293.406 109.972L294.272 110.468C294.34 110.468 294.33 110.575 294.272 110.623L293.445 111.1C293.403 111.121 293.357 111.132 293.309 111.132C293.262 111.132 293.215 111.121 293.173 111.1L292.318 110.604C292.25 110.604 292.25 110.497 292.318 110.448L293.134 109.972C293.176 109.951 293.223 109.94 293.27 109.94C293.318 109.94 293.364 109.951 293.406 109.972Z" fill="#3A2C6D"/>
<path d="M292.191 109.272L293.056 109.768C293.124 109.768 293.114 109.875 293.056 109.924L292.239 110.4C292.196 110.419 292.15 110.429 292.103 110.429C292.056 110.429 292.01 110.419 291.967 110.4L291.111 109.904C291.034 109.904 291.043 109.787 291.111 109.749L291.928 109.272C291.969 109.248 292.016 109.236 292.064 109.236C292.112 109.236 292.159 109.248 292.2 109.272" fill="#3A2C6D"/>
<path d="M290.976 108.563L291.832 109.058C291.909 109.058 291.9 109.175 291.832 109.224L291.015 109.69C290.973 109.712 290.926 109.723 290.879 109.723C290.832 109.723 290.785 109.712 290.743 109.69L289.878 109.195C289.809 109.195 289.819 109.078 289.878 109.029L290.694 108.563C290.736 108.541 290.783 108.53 290.83 108.53C290.878 108.53 290.924 108.541 290.966 108.563" fill="#3A2C6D"/>
<path d="M289.76 107.892L290.616 108.388C290.684 108.388 290.684 108.504 290.616 108.543L289.799 109.02C289.757 109.041 289.71 109.052 289.663 109.052C289.616 109.052 289.569 109.041 289.527 109.02L288.662 108.524C288.594 108.524 288.603 108.417 288.662 108.368L289.488 107.892C289.53 107.871 289.577 107.859 289.624 107.859C289.671 107.859 289.718 107.871 289.76 107.892Z" fill="#3A2C6D"/>
<path d="M287.962 106.823L289.401 107.659C289.469 107.659 289.469 107.766 289.401 107.814L288.585 108.291C288.542 108.312 288.496 108.323 288.449 108.323C288.401 108.323 288.355 108.312 288.312 108.291L286.864 107.455C286.796 107.455 286.806 107.348 286.864 107.299L287.681 106.823C287.724 106.801 287.773 106.79 287.821 106.79C287.87 106.79 287.919 106.801 287.962 106.823Z" fill="#3A2C6D"/>
<path d="M303.731 114.57L304.587 115.065C304.664 115.065 304.655 115.172 304.587 115.221L303.77 115.697C303.728 115.719 303.681 115.73 303.634 115.73C303.586 115.73 303.54 115.719 303.498 115.697L302.632 115.202C302.564 115.202 302.574 115.095 302.632 115.046L303.449 114.57C303.491 114.548 303.538 114.537 303.585 114.537C303.632 114.537 303.679 114.548 303.721 114.57" fill="#3A2C6D"/>
<path d="M302.515 113.86L303.371 114.356C303.439 114.356 303.429 114.472 303.371 114.521L302.554 114.988C302.512 115.009 302.465 115.02 302.418 115.02C302.371 115.02 302.324 115.009 302.282 114.988L301.417 114.492C301.349 114.492 301.358 114.375 301.417 114.327L302.243 113.86C302.285 113.839 302.332 113.828 302.379 113.828C302.426 113.828 302.473 113.839 302.515 113.86Z" fill="#3A2C6D"/>
<path d="M301.291 113.16L302.156 113.656C302.224 113.656 302.214 113.773 302.156 113.812L301.33 114.288C301.287 114.309 301.241 114.32 301.193 114.32C301.146 114.32 301.1 114.309 301.057 114.288L300.202 113.792C300.134 113.792 300.143 113.685 300.202 113.637L301.018 113.16C301.061 113.139 301.107 113.128 301.155 113.128C301.202 113.128 301.248 113.139 301.291 113.16Z" fill="#3A2C6D"/>
<path d="M300.085 112.46L300.941 112.956C301.018 112.956 301.009 113.063 300.941 113.112L300.124 113.588C300.082 113.609 300.035 113.62 299.988 113.62C299.94 113.62 299.894 113.609 299.852 113.588L298.996 113.092C298.918 113.092 298.928 112.976 298.996 112.937L299.813 112.46C299.855 112.439 299.902 112.428 299.949 112.428C299.996 112.428 300.043 112.439 300.085 112.46Z" fill="#3A2C6D"/>
<path d="M298.87 111.78L299.725 112.276C299.793 112.276 299.784 112.392 299.725 112.431L298.909 112.908C298.866 112.929 298.82 112.94 298.772 112.94C298.725 112.94 298.679 112.929 298.636 112.908L297.771 112.412C297.703 112.412 297.713 112.305 297.771 112.256L298.597 111.78C298.64 111.759 298.686 111.748 298.734 111.748C298.781 111.748 298.827 111.759 298.87 111.78Z" fill="#3A2C6D"/>
<path d="M297.645 111.061L298.51 111.556C298.578 111.556 298.569 111.663 298.51 111.712L297.684 112.188C297.641 112.208 297.595 112.218 297.548 112.218C297.501 112.218 297.455 112.208 297.412 112.188L296.556 111.693C296.488 111.693 296.498 111.576 296.556 111.537L297.373 111.061C297.414 111.037 297.461 111.024 297.509 111.024C297.557 111.024 297.604 111.037 297.645 111.061Z" fill="#3A2C6D"/>
<path d="M296.43 110.351L297.285 110.847C297.363 110.847 297.353 110.964 297.285 111.012L296.469 111.479C296.427 111.503 296.38 111.515 296.333 111.515C296.285 111.515 296.238 111.503 296.196 111.479L295.341 110.983C295.263 110.983 295.273 110.876 295.341 110.827L296.158 110.351C296.2 110.332 296.247 110.322 296.294 110.322C296.341 110.322 296.387 110.332 296.43 110.351Z" fill="#3A2C6D"/>
<path d="M295.224 109.651L296.08 110.147C296.148 110.147 296.138 110.254 296.08 110.303L295.224 110.808C295.182 110.829 295.135 110.841 295.088 110.841C295.041 110.841 294.994 110.829 294.952 110.808L294.087 110.312C294.018 110.312 294.028 110.205 294.087 110.157L294.913 109.681C294.955 109.659 295.002 109.648 295.049 109.648C295.096 109.648 295.143 109.659 295.185 109.681" fill="#3A2C6D"/>
<path d="M293.99 108.951L294.855 109.447C294.923 109.447 294.913 109.554 294.855 109.603L294.029 110.079C293.986 110.098 293.94 110.108 293.893 110.108C293.846 110.108 293.799 110.098 293.757 110.079L292.901 109.583C292.833 109.583 292.843 109.467 292.901 109.418L293.718 108.951C293.759 108.928 293.806 108.915 293.854 108.915C293.902 108.915 293.948 108.928 293.99 108.951Z" fill="#3A2C6D"/>
<path d="M292.774 108.242L293.629 108.738C293.707 108.738 293.698 108.854 293.629 108.893L292.813 109.369C292.771 109.391 292.724 109.402 292.677 109.402C292.629 109.402 292.583 109.391 292.541 109.369L291.675 108.874C291.607 108.874 291.617 108.767 291.675 108.718L292.492 108.242C292.534 108.221 292.581 108.209 292.628 108.209C292.675 108.209 292.722 108.221 292.764 108.242" fill="#3A2C6D"/>
<path d="M291.559 107.542L292.415 108.038C292.483 108.038 292.473 108.145 292.415 108.193L291.598 108.67C291.556 108.691 291.509 108.702 291.462 108.702C291.415 108.702 291.368 108.691 291.326 108.67L290.461 108.174C290.392 108.174 290.402 108.057 290.461 108.018L291.287 107.542C291.329 107.521 291.376 107.51 291.423 107.51C291.47 107.51 291.517 107.521 291.559 107.542Z" fill="#3A2C6D"/>
<path d="M290.363 106.833L291.228 107.328C291.296 107.328 291.286 107.445 291.228 107.493L290.402 107.96C290.36 107.981 290.313 107.993 290.266 107.993C290.218 107.993 290.172 107.981 290.13 107.96L289.274 107.464C289.206 107.464 289.216 107.348 289.274 107.299L290.091 106.833C290.133 106.811 290.179 106.8 290.227 106.8C290.274 106.8 290.321 106.811 290.363 106.833Z" fill="#3A2C6D"/>
<path d="M304.946 115.27L306.394 116.105C306.462 116.105 306.453 116.222 306.394 116.261L305.578 116.737C305.536 116.759 305.489 116.77 305.442 116.77C305.394 116.77 305.348 116.759 305.306 116.737L303.857 115.901C303.789 115.901 303.799 115.794 303.857 115.746L304.674 115.27C304.716 115.25 304.763 115.24 304.81 115.24C304.857 115.24 304.903 115.25 304.946 115.27Z" fill="#3A2C6D"/>
<path d="M288.02 106.784L288.876 107.28C288.915 107.299 288.958 107.309 289.002 107.309C289.046 107.309 289.089 107.299 289.129 107.28L289.994 106.774C290.072 106.774 290.072 106.667 289.994 106.628H289.926C289.914 106.622 289.903 106.612 289.896 106.6C289.889 106.588 289.886 106.574 289.886 106.56C289.886 106.547 289.889 106.533 289.896 106.521C289.903 106.509 289.914 106.499 289.926 106.492L290.849 105.958C290.864 105.952 290.877 105.942 290.886 105.929C290.895 105.916 290.9 105.901 290.9 105.885C290.9 105.869 290.895 105.854 290.886 105.84C290.877 105.827 290.864 105.818 290.849 105.812L290.305 105.501C290.264 105.482 290.219 105.472 290.174 105.472C290.128 105.472 290.084 105.482 290.042 105.501L289.187 105.997L289.012 106.094L288.886 106.172L288.759 106.249L288.02 106.667C287.942 106.667 287.942 106.774 288.02 106.823" fill="#3A2C6D"/>
<path d="M309.068 113.569L309.923 114.064C310.001 114.064 309.991 114.171 309.923 114.22L309.107 114.696C309.064 114.715 309.018 114.725 308.971 114.725C308.924 114.725 308.877 114.715 308.835 114.696L307.969 114.2C307.901 114.2 307.911 114.084 307.969 114.045L308.786 113.569C308.827 113.545 308.874 113.532 308.922 113.532C308.97 113.532 309.017 113.545 309.058 113.569" fill="#3A2C6D"/>
<path d="M307.863 112.869L308.728 113.364C308.796 113.364 308.786 113.471 308.728 113.52L307.901 113.996C307.859 114.015 307.812 114.025 307.765 114.025C307.718 114.025 307.672 114.015 307.629 113.996L306.774 113.5C306.706 113.5 306.706 113.384 306.774 113.345L307.59 112.869C307.632 112.845 307.679 112.832 307.726 112.832C307.774 112.832 307.821 112.845 307.863 112.869Z" fill="#3A2C6D"/>
<path d="M306.637 112.169L307.503 112.665C307.571 112.665 307.561 112.771 307.503 112.82L306.686 113.296C306.641 113.315 306.593 113.325 306.545 113.325C306.496 113.325 306.449 113.315 306.404 113.296L305.548 112.801C305.48 112.801 305.49 112.684 305.548 112.645L306.365 112.169C306.406 112.145 306.453 112.132 306.501 112.132C306.549 112.132 306.596 112.145 306.637 112.169Z" fill="#3A2C6D"/>
<path d="M296.313 106.201L297.169 106.697C297.246 106.697 297.237 106.813 297.169 106.852L296.352 107.328C296.31 107.35 296.263 107.361 296.216 107.361C296.169 107.361 296.122 107.35 296.08 107.328L295.214 106.833C295.146 106.833 295.156 106.726 295.214 106.677L296.041 106.201C296.083 106.179 296.13 106.168 296.177 106.168C296.224 106.168 296.271 106.179 296.313 106.201Z" fill="#3A2C6D"/>
<path d="M295.098 105.501L295.963 105.997C296.031 105.997 296.021 106.113 295.963 106.152L295.137 106.628C295.094 106.65 295.048 106.661 295 106.661C294.953 106.661 294.907 106.65 294.864 106.628L294.009 106.133C293.931 106.133 293.941 106.026 294.009 105.977L294.826 105.501C294.868 105.48 294.914 105.468 294.962 105.468C295.009 105.468 295.056 105.48 295.098 105.501Z" fill="#3A2C6D"/>
<path d="M293.882 104.801L294.748 105.297C294.816 105.297 294.806 105.413 294.748 105.452L293.921 105.929C293.879 105.95 293.832 105.961 293.785 105.961C293.738 105.961 293.691 105.95 293.649 105.929L292.794 105.433C292.726 105.433 292.735 105.326 292.794 105.277L293.61 104.801C293.652 104.78 293.699 104.769 293.746 104.769C293.794 104.769 293.84 104.78 293.882 104.801Z" fill="#3A2C6D"/>
<path d="M292.677 104.101L293.533 104.597C293.601 104.597 293.591 104.714 293.533 104.752L292.716 105.229C292.672 105.25 292.624 105.261 292.575 105.261C292.526 105.261 292.478 105.25 292.434 105.229L291.579 104.733C291.511 104.733 291.52 104.626 291.579 104.577L292.405 104.101C292.447 104.08 292.494 104.069 292.541 104.069C292.588 104.069 292.635 104.08 292.677 104.101Z" fill="#3A2C6D"/>
<path d="M305.121 111.284L306.287 111.965C306.355 111.965 306.346 112.072 306.287 112.12L305.471 112.597C305.428 112.616 305.381 112.626 305.335 112.626C305.288 112.626 305.241 112.616 305.198 112.597L304.022 111.916C303.954 111.916 303.964 111.809 304.022 111.761L304.839 111.284C304.883 111.263 304.931 111.252 304.98 111.252C305.029 111.252 305.077 111.263 305.121 111.284Z" fill="#3A2C6D"/>
<path d="M297.528 106.92L298.695 107.6C298.763 107.6 298.763 107.707 298.695 107.756L297.878 108.232C297.836 108.254 297.789 108.265 297.742 108.265C297.694 108.265 297.648 108.254 297.606 108.232L296.429 107.552C296.361 107.552 296.371 107.445 296.429 107.396L297.256 106.92C297.298 106.901 297.345 106.891 297.392 106.891C297.439 106.891 297.485 106.901 297.528 106.92Z" fill="#3A2C6D"/>
<path d="M299.055 107.785L304.762 111.08C304.83 111.08 304.82 111.187 304.762 111.236L303.945 111.712C303.903 111.733 303.857 111.744 303.809 111.744C303.762 111.744 303.715 111.733 303.673 111.712L297.957 108.417C297.889 108.417 297.898 108.3 297.957 108.261L298.773 107.785C298.817 107.764 298.865 107.752 298.914 107.752C298.963 107.752 299.011 107.764 299.055 107.785Z" fill="#3A2C6D"/>
<path d="M304.576 113.724L305.442 114.22C305.51 114.22 305.5 114.336 305.442 114.375L304.615 114.852C304.574 114.875 304.527 114.888 304.479 114.888C304.431 114.888 304.384 114.875 304.343 114.852L303.488 114.356C303.42 114.356 303.42 114.249 303.488 114.2L304.304 113.724C304.347 113.705 304.393 113.695 304.44 113.695C304.487 113.695 304.534 113.705 304.576 113.724Z" fill="#3A2C6D"/>
<path d="M303.362 112.995L304.227 113.491C304.295 113.491 304.285 113.607 304.227 113.646L303.4 114.123C303.358 114.144 303.312 114.155 303.264 114.155C303.217 114.155 303.17 114.144 303.128 114.123L302.273 113.627C302.205 113.627 302.205 113.52 302.273 113.471L303.089 112.995C303.132 112.974 303.178 112.963 303.225 112.963C303.273 112.963 303.319 112.974 303.362 112.995Z" fill="#3A2C6D"/>
<path d="M302.146 112.295L303.011 112.791C303.079 112.791 303.069 112.898 303.011 112.946L302.185 113.423C302.142 113.444 302.096 113.455 302.049 113.455C302.001 113.455 301.955 113.444 301.912 113.423L301.057 112.927C300.989 112.927 300.989 112.82 301.057 112.771L301.874 112.295C301.916 112.274 301.962 112.263 302.01 112.263C302.057 112.263 302.104 112.274 302.146 112.295Z" fill="#3A2C6D"/>
<path d="M300.931 111.595L301.796 112.091C301.864 112.091 301.854 112.198 301.796 112.247L300.97 112.723C300.928 112.744 300.881 112.755 300.834 112.755C300.786 112.755 300.74 112.744 300.698 112.723L299.842 112.227C299.774 112.227 299.774 112.111 299.842 112.072L300.659 111.595C300.701 111.574 300.748 111.563 300.795 111.563C300.842 111.563 300.889 111.574 300.931 111.595Z" fill="#3A2C6D"/>
<path d="M299.715 110.895L300.581 111.391C300.649 111.391 300.639 111.498 300.581 111.547L299.754 112.023C299.712 112.042 299.665 112.052 299.618 112.052C299.571 112.052 299.525 112.042 299.482 112.023L298.627 111.527C298.559 111.527 298.568 111.411 298.627 111.362L299.443 110.895C299.485 110.872 299.532 110.859 299.579 110.859C299.627 110.859 299.674 110.872 299.715 110.895Z" fill="#3A2C6D"/>
<path d="M298.501 110.186L299.366 110.682C299.434 110.682 299.424 110.798 299.366 110.847L298.539 111.313C298.497 111.335 298.451 111.346 298.403 111.346C298.356 111.346 298.309 111.335 298.267 111.313L297.412 110.818C297.344 110.818 297.353 110.701 297.412 110.652L298.228 110.186C298.271 110.165 298.317 110.153 298.364 110.153C298.412 110.153 298.458 110.165 298.501 110.186Z" fill="#3A2C6D"/>
<path d="M297.286 109.486L298.151 109.982C298.219 109.982 298.209 110.098 298.151 110.137L297.325 110.614C297.283 110.638 297.236 110.65 297.189 110.65C297.141 110.65 297.094 110.638 297.052 110.614L296.197 110.118C296.129 110.118 296.139 110.011 296.197 109.962L297.014 109.486C297.056 109.467 297.103 109.457 297.15 109.457C297.197 109.457 297.243 109.467 297.286 109.486Z" fill="#3A2C6D"/>
<path d="M296.07 108.786L296.935 109.282C297.003 109.282 296.994 109.399 296.935 109.437L296.109 109.914C296.067 109.935 296.02 109.946 295.973 109.946C295.925 109.946 295.879 109.935 295.837 109.914L294.981 109.418C294.913 109.418 294.923 109.311 294.981 109.263L295.798 108.786C295.84 108.765 295.887 108.754 295.934 108.754C295.981 108.754 296.028 108.765 296.07 108.786Z" fill="#3A2C6D"/>
<path d="M294.855 108.086L295.72 108.582C295.788 108.582 295.779 108.689 295.72 108.738L294.894 109.214C294.852 109.235 294.805 109.246 294.758 109.246C294.711 109.246 294.664 109.235 294.622 109.214L293.766 108.718C293.698 108.718 293.708 108.611 293.766 108.563L294.583 108.086C294.625 108.065 294.672 108.054 294.719 108.054C294.766 108.054 294.813 108.065 294.855 108.086Z" fill="#3A2C6D"/>
<path d="M293.649 107.387L294.505 107.882C294.573 107.882 294.563 107.989 294.505 108.038L293.678 108.514C293.636 108.536 293.589 108.547 293.542 108.547C293.495 108.547 293.448 108.536 293.406 108.514L292.55 108.018C292.482 108.018 292.492 107.902 292.55 107.863L293.367 107.387C293.411 107.365 293.459 107.354 293.508 107.354C293.557 107.354 293.605 107.365 293.649 107.387Z" fill="#3A2C6D"/>
<path d="M292.434 106.687L293.29 107.182C293.358 107.182 293.348 107.289 293.29 107.338L292.463 107.814C292.421 107.834 292.374 107.844 292.327 107.844C292.28 107.844 292.234 107.834 292.191 107.814L291.336 107.319C291.267 107.319 291.277 107.202 291.336 107.153L292.152 106.687C292.195 106.663 292.244 106.65 292.293 106.65C292.342 106.65 292.391 106.663 292.434 106.687Z" fill="#3A2C6D"/>
<path d="M291.218 105.948L292.074 106.444C292.142 106.444 292.132 106.56 292.074 106.609L291.257 107.076C291.213 107.097 291.165 107.108 291.116 107.108C291.067 107.108 291.019 107.097 290.975 107.076L290.12 106.58C290.052 106.58 290.061 106.463 290.12 106.415L290.936 105.948C290.98 105.927 291.028 105.915 291.077 105.915C291.126 105.915 291.174 105.927 291.218 105.948Z" fill="#3A2C6D"/>
<path d="M305.792 114.395L307.571 115.425C307.639 115.425 307.629 115.532 307.571 115.581L306.754 116.057C306.712 116.078 306.666 116.089 306.618 116.089C306.571 116.089 306.524 116.078 306.482 116.057L304.703 115.027C304.625 115.027 304.635 114.92 304.703 114.871L305.52 114.404C305.562 114.383 305.609 114.372 305.656 114.372C305.703 114.372 305.75 114.383 305.792 114.404" fill="#3A2C6D"/>
<path d="M306.366 113.364L307.221 113.86C307.289 113.86 307.28 113.967 307.221 114.016L306.405 114.492C306.362 114.513 306.316 114.524 306.269 114.524C306.221 114.524 306.175 114.513 306.132 114.492L305.267 113.996C305.199 113.996 305.209 113.889 305.267 113.841L306.094 113.364C306.136 113.343 306.182 113.332 306.23 113.332C306.277 113.332 306.324 113.343 306.366 113.364Z" fill="#3A2C6D"/>
<path d="M305.15 112.665L306.005 113.16C306.074 113.16 306.064 113.267 306.005 113.316L305.189 113.792C305.147 113.813 305.1 113.825 305.053 113.825C305.005 113.825 304.959 113.813 304.917 113.792L304.051 113.296C303.983 113.296 303.993 113.18 304.051 113.141L304.878 112.665C304.92 112.643 304.967 112.632 305.014 112.632C305.061 112.632 305.108 112.643 305.15 112.665Z" fill="#3A2C6D"/>
<path d="M303.974 111.965L304.83 112.46C304.898 112.46 304.888 112.567 304.83 112.616L304.013 113.092C303.969 113.114 303.921 113.125 303.872 113.125C303.823 113.125 303.775 113.114 303.731 113.092L302.876 112.597C302.808 112.597 302.817 112.48 302.876 112.441L303.702 111.965C303.744 111.943 303.791 111.932 303.838 111.932C303.885 111.932 303.932 111.943 303.974 111.965Z" fill="#3A2C6D"/>
<path d="M302.719 111.265L303.575 111.761C303.643 111.761 303.633 111.867 303.575 111.916L302.758 112.392C302.715 112.412 302.669 112.422 302.622 112.422C302.575 112.422 302.529 112.412 302.486 112.392L301.621 111.897C301.553 111.897 301.562 111.78 301.621 111.731L302.447 111.265C302.488 111.241 302.535 111.228 302.583 111.228C302.631 111.228 302.678 111.241 302.719 111.265Z" fill="#3A2C6D"/>
<path d="M301.504 110.555L302.36 111.051C302.428 111.051 302.418 111.168 302.36 111.216L301.543 111.683C301.501 111.704 301.454 111.715 301.407 111.715C301.36 111.715 301.313 111.704 301.271 111.683L300.406 111.187C300.338 111.187 300.348 111.07 300.406 111.022L301.232 110.555C301.274 110.534 301.321 110.523 301.368 110.523C301.416 110.523 301.462 110.534 301.504 110.555Z" fill="#3A2C6D"/>
<path d="M300.29 109.836L301.145 110.332C301.213 110.332 301.204 110.448 301.145 110.497L300.329 110.964C300.287 110.987 300.24 111 300.192 111C300.145 111 300.098 110.987 300.056 110.964L299.191 110.468C299.123 110.468 299.133 110.361 299.191 110.312L300.017 109.836C300.06 109.817 300.107 109.807 300.154 109.807C300.2 109.807 300.247 109.817 300.29 109.836Z" fill="#3A2C6D"/>
<path d="M299.113 109.156L299.968 109.651C300.036 109.651 300.027 109.768 299.968 109.807L299.152 110.283C299.11 110.305 299.063 110.316 299.016 110.316C298.968 110.316 298.922 110.305 298.88 110.283L298.014 109.787C297.946 109.787 297.956 109.681 298.014 109.632L298.841 109.156C298.883 109.134 298.929 109.123 298.977 109.123C299.024 109.123 299.071 109.134 299.113 109.156Z" fill="#3A2C6D"/>
<path d="M297.859 108.456L298.714 108.952C298.792 108.952 298.773 109.058 298.714 109.107L297.898 109.583C297.856 109.605 297.809 109.616 297.762 109.616C297.714 109.616 297.668 109.605 297.626 109.583L296.76 109.088C296.692 109.088 296.702 108.981 296.76 108.932L297.587 108.456C297.629 108.434 297.676 108.423 297.723 108.423C297.77 108.423 297.817 108.434 297.859 108.456Z" fill="#3A2C6D"/>
<path d="M296.644 107.756L297.5 108.252C297.577 108.252 297.568 108.359 297.5 108.407L296.683 108.884C296.641 108.905 296.594 108.916 296.547 108.916C296.5 108.916 296.453 108.905 296.411 108.884L295.546 108.388C295.477 108.388 295.487 108.271 295.546 108.232L296.372 107.756C296.414 107.735 296.461 107.724 296.508 107.724C296.555 107.724 296.602 107.735 296.644 107.756Z" fill="#3A2C6D"/>
<path d="M295.428 107.056L296.284 107.552C296.362 107.552 296.352 107.659 296.284 107.707L295.467 108.184C295.424 108.203 295.378 108.213 295.331 108.213C295.284 108.213 295.238 108.203 295.195 108.184L294.33 107.688C294.262 107.688 294.271 107.571 294.33 107.532L295.156 107.056C295.197 107.032 295.244 107.02 295.292 107.02C295.34 107.02 295.387 107.032 295.428 107.056Z" fill="#3A2C6D"/>
<path d="M294.252 106.356L295.108 106.852C295.186 106.852 295.176 106.959 295.108 107.008L294.291 107.484C294.249 107.503 294.202 107.513 294.155 107.513C294.108 107.513 294.062 107.503 294.019 107.484L293.154 106.988C293.086 106.988 293.096 106.871 293.154 106.823L293.98 106.356C294.022 106.332 294.069 106.32 294.116 106.32C294.164 106.32 294.211 106.332 294.252 106.356Z" fill="#3A2C6D"/>
<path d="M291.491 104.782L293.853 106.142C293.931 106.142 293.921 106.259 293.853 106.308L293.037 106.774C292.995 106.798 292.948 106.811 292.901 106.811C292.853 106.811 292.806 106.798 292.764 106.774L290.402 105.413C290.334 105.413 290.344 105.307 290.402 105.258L291.219 104.782C291.261 104.76 291.307 104.749 291.355 104.749C291.402 104.749 291.449 104.76 291.491 104.782Z" fill="#3A2C6D"/>
<path d="M307.581 114.064L308.747 114.745C308.815 114.745 308.806 114.852 308.747 114.9L307.931 115.376C307.888 115.396 307.841 115.406 307.794 115.406C307.748 115.406 307.701 115.396 307.658 115.376L306.482 114.696C306.414 114.696 306.424 114.589 306.482 114.54L307.308 114.064C307.351 114.043 307.397 114.032 307.445 114.032C307.492 114.032 307.538 114.043 307.581 114.064Z" fill="#3A2C6D"/>
<path d="M286.737 107.532L303.974 117.486C304.042 117.486 304.032 117.602 303.974 117.651L303.566 117.884C303.522 117.906 303.474 117.917 303.425 117.917C303.376 117.917 303.328 117.906 303.284 117.884L286.037 107.892C285.959 107.892 285.969 107.785 286.037 107.737L286.446 107.503C286.487 107.479 286.534 107.467 286.582 107.467C286.629 107.467 286.676 107.479 286.718 107.503" fill="#3A2C6D"/>
<path d="M306.92 107.97L306.803 108.038L303.828 109.758L298.53 106.696L298.413 106.638L301.514 104.85L306.92 107.97Z" fill="#BFBFBF"/>
<path d="M306.803 108.038L303.828 109.758L298.529 106.697L301.514 104.976L306.803 108.038Z" fill="#E5E5E5"/>
<path d="M315.426 111.994V112.256C315.433 112.452 315.385 112.647 315.289 112.818C315.193 112.989 315.052 113.131 314.882 113.228L304.372 119.294C304.209 119.389 304.023 119.44 303.833 119.44C303.643 119.44 303.457 119.389 303.293 119.294L284.277 108.32C284.107 108.222 283.966 108.081 283.87 107.909C283.774 107.738 283.727 107.544 283.733 107.348V107.085L303.828 118.681L315.426 111.994Z" fill="#E5E5E5"/>
<path d="M303.527 118.846C303.348 118.915 303.155 118.942 302.963 118.927C302.772 118.912 302.586 118.854 302.419 118.759L283.49 107.834C283.325 107.739 283.182 107.609 283.073 107.452C282.964 107.296 282.891 107.118 282.859 106.93L280.788 94.5756C280.783 94.5044 280.783 94.433 280.788 94.3618C280.788 94.019 280.924 93.6904 281.167 93.4481L300.844 104.811C300.965 104.881 301.069 104.976 301.149 105.09C301.23 105.204 301.285 105.335 301.311 105.472L303.527 118.846Z" fill="#F4F4F4"/>
<path d="M303.829 118.681L303.702 118.759L303.527 118.846L301.291 105.472C301.265 105.334 301.21 105.204 301.13 105.09C301.049 104.976 300.945 104.881 300.825 104.811L281.147 93.4481C281.224 93.3696 281.313 93.304 281.41 93.2537L301.126 104.626C301.248 104.697 301.353 104.794 301.433 104.91C301.514 105.026 301.568 105.158 301.593 105.297L303.829 118.681Z" fill="#E5E5E5"/>
<path d="M318.119 65.8044C318.119 65.8044 317.876 70.5089 317.983 70.9269C318.09 71.3449 320.142 72.7154 320.744 73.2111C321.347 73.7068 317.487 77.4976 315.621 78.3627C313.754 79.2278 307.843 76.9533 307.707 74.047C307.571 71.1407 308.728 68.6913 309.652 68.5552C310.575 68.4191 318.139 65.8044 318.139 65.8044" fill="#FFCEA9"/>
<path d="M318.644 71.7337C318.644 71.7337 315.231 76.8172 310.477 77.2935C308.97 75.8161 308.834 70.5478 310.915 68.8663C310.915 68.8663 308.97 67.3305 307.697 67.6318C306.3 68.4809 305.262 69.8122 304.78 71.374C303.567 74.8715 302.997 78.5598 303.098 82.2604C303.176 87.2468 303.098 99.8634 303.098 99.8634C303.38 101.353 303.973 102.767 304.84 104.011C305.706 105.256 306.825 106.304 308.125 107.085C311.558 109.015 315.595 109.571 319.421 108.641C321.833 108.077 322.727 106.697 323.553 104.976C323.339 101.487 321.959 94.2841 322.581 89.8906C323.203 85.4972 324.088 82.2118 324.331 78.6543C324.574 75.0968 323.864 75.1745 322.085 73.9012C321.014 73.0996 319.886 72.3752 318.712 71.7337" fill="#F4F4F4"/>
<path d="M313.171 112.256C314.03 111.69 314.923 111.177 315.845 110.721C316.709 110.452 317.496 109.978 318.139 109.34C318.975 108.514 320.346 105.452 321.318 102.4C322.29 98.9909 322.671 95.4405 322.446 91.9026C322.028 87.655 320.501 81.7258 320.113 79.2666C319.724 76.8075 320.511 75.8549 321.649 74.951C322.981 73.9012 324.818 74.3677 325.8 77.7795C327.082 82.5351 327.828 87.4188 328.026 92.34C328.054 95.9728 327.482 99.5852 326.335 103.032C325.323 105.991 323.952 108.815 322.251 111.44C321.785 112.227 321.639 112.927 320.92 114.541C320.23 116.156 319.159 117.58 317.799 118.691C316.603 119.546 316.039 119.663 315.757 119.507C315.475 119.352 315.475 118.915 315.981 118.458C316.827 117.798 317.549 116.991 318.11 116.076C318.11 116.076 317.06 117.126 316.379 117.69C315.777 118.204 315.106 118.632 314.386 118.963C313.686 119.274 312.714 118.681 313.21 118.215C313.706 117.748 314.182 117.505 315.213 116.65C315.743 116.193 316.216 115.674 316.622 115.104C315.924 115.644 315.183 116.125 314.406 116.543C313.799 116.916 313.096 117.105 312.384 117.087C312.014 117.087 311.567 116.562 312.257 116.057C313.211 115.562 314.102 114.955 314.911 114.249C315.67 113.491 316.107 112.849 315.884 112.84C315.66 112.83 315.252 113.296 314.357 113.578C313.463 113.86 312.5 113.578 312.413 113.121C312.325 112.665 312.325 112.713 313.161 112.305" fill="#FFCEA9"/>
<path d="M307.484 58.7963C308.038 55.1416 310.673 52.3811 314.435 52.5852C316.352 52.7029 318.144 53.5749 319.419 55.0103C320.694 56.4457 321.349 58.3277 321.24 60.2446C321.179 61.3523 320.862 62.4308 320.313 63.3954C319.765 64.36 319.001 65.1846 318.081 65.8044C317.95 66.357 317.754 66.8921 317.497 67.3985C316.165 68.9537 312.141 69.916 310.984 69.7507C310.297 69.6895 309.644 69.4233 309.11 68.9865C308.576 68.5497 308.185 67.9626 307.989 67.3013C306.735 64.4339 307.134 60.5945 307.445 58.7963" fill="#FFCEA9"/>
<path d="M318.12 65.8045L317.779 62.6163C317.779 62.6163 320.375 55.8803 314.231 57.1731C310.177 58.0285 309.156 58.3978 307.921 55.6762C306.687 52.9546 311.042 50.5052 316.214 51.1856C317.995 51.3728 319.641 52.2219 320.826 53.5648C322.011 54.9077 322.648 56.6465 322.611 58.4367C322.475 60.439 321.94 64.4923 318.12 65.8045Z" fill="#3A2C6D"/>
<path d="M328.648 84.078C328.648 84.078 325.294 87.4217 321.317 86.4594C320.754 86.0706 319.373 78.2752 319.373 78.2752C319.373 78.2752 319.373 73.9498 322.688 74.0664C326.003 74.183 328.628 84.078 328.628 84.078" fill="#EDEDED"/>
<path d="M303.313 77.6143C302.373 77.5763 301.485 77.1757 300.834 76.4965C300.96 74.7566 303.196 68.1276 307.698 67.6318C306.473 68.489 305.502 69.661 304.888 71.0241C304.193 73.1768 303.667 75.3801 303.313 77.6143Z" fill="#EDEDED"/>
<g opacity="0.4">
<g opacity="0.4">
<path opacity="0.4" d="M285.503 481.791C287.904 487.03 298.238 487.429 308.592 482.685C318.946 477.942 325.362 469.845 322.971 464.616C320.579 459.387 310.235 458.978 299.881 463.722C289.527 468.465 283.082 476.562 285.493 481.801" fill="#D6D8E5"/>
</g>
</g>
<path d="M320.705 387.974C320.705 387.974 320.064 397.626 318.761 399.016C317.458 400.406 313.21 401.358 313.21 401.358L309.904 406.782C309.904 406.782 312.918 389.529 313.579 389.111C314.24 388.693 320.666 387.974 320.666 387.974" fill="#FFCEA9"/>
<path d="M314.356 377.253C315.161 376.884 316.072 376.821 316.919 377.077C317.766 377.333 318.49 377.89 318.955 378.643C320.17 380.655 321.424 387.556 321.541 388.732C321.541 388.732 319.84 391.084 317.283 390.676L314.356 377.253Z" fill="#EDEDED"/>
<path d="M304.587 473.597C302.79 474.101 300.866 473.87 299.24 472.956C297.956 472.956 290.976 470.04 290.023 472.518C289.187 474.715 292.211 476.747 293.834 477.145C297.354 478.001 299.969 479.75 301.388 480.061C302.438 480.285 303.809 480.431 304.645 479.604C305.617 478.632 305.569 474.919 304.587 473.607" fill="#38226D"/>
<path d="M301.388 479.439C299.969 479.147 297.353 477.388 293.834 476.523C292.473 476.193 290.14 474.715 289.945 472.946C289.634 474.968 292.366 476.766 293.834 477.126C297.353 477.981 299.969 479.74 301.388 480.042C302.438 480.265 303.809 480.411 304.645 479.585C304.863 479.343 305.023 479.053 305.112 478.739C304.588 479.137 303.978 479.407 303.332 479.526C302.685 479.646 302.019 479.613 301.388 479.429" fill="#9C73FF"/>
<path d="M315.456 470.215C313.66 470.71 311.742 470.476 310.118 469.563C308.825 469.563 301.845 466.647 300.892 469.126C300.066 471.323 303.089 473.354 304.703 473.753C308.232 474.608 310.838 476.367 312.257 476.669C313.317 476.892 314.678 477.038 315.524 476.212C316.496 475.24 316.447 471.537 315.456 470.224" fill="#38226D"/>
<path d="M312.257 476.056C310.837 475.755 308.232 473.996 304.703 473.14C303.351 472.81 301.018 471.333 300.814 469.563C300.493 471.595 303.225 473.383 304.703 473.753C308.232 474.608 310.837 476.367 312.257 476.669C313.316 476.892 314.677 477.038 315.523 476.212C315.742 475.972 315.899 475.681 315.98 475.366C315.457 475.765 314.848 476.036 314.201 476.158C313.555 476.279 312.889 476.248 312.257 476.066" fill="#9C73FF"/>
<path d="M316.233 450.58C315.929 447.987 315.388 445.426 314.619 442.931C314.619 442.931 315.096 436.331 315.339 430.071C315.611 422.976 318.071 416.726 316.126 411.059L294.505 415.919C294.505 415.919 295.545 444.282 295.837 447.713C295.995 450.381 296.32 453.036 296.809 455.664C297.781 461.156 298.899 473.452 298.899 473.452C301.223 474.803 304.616 473.695 304.616 473.695C304.616 473.695 304.616 458.298 304.48 454.342C304.295 449.482 304.149 449.871 304.149 449.871L304.878 437.828L305.345 431.84C305.345 431.84 305.957 436.234 306.317 440.161C306.667 443.582 307.493 446.683 308.417 453.059C309.214 458.59 310.04 469.855 310.04 469.855C312.364 471.206 315.475 470.273 315.475 470.273C315.475 470.273 316.817 455.421 316.194 450.629" fill="#8C50FF"/>
<path d="M313.2 377.379C311.528 377.457 310.283 377.884 310.079 377.379C309.899 376.516 309.772 375.643 309.7 374.764C309.885 374.288 310.05 373.792 310.05 373.792C312.15 372.5 312.811 370.235 313.083 367.601C313.56 363.091 311.139 359.144 306.618 358.678C302.379 358.24 299.259 361.215 298.423 365.307C297.975 367.319 297.091 371.139 298.296 374.453C298.967 376.31 299.832 377.787 300.707 378.079C301.547 378.05 302.384 377.975 303.215 377.855C303.215 377.855 303.439 379.109 303.595 379.916C303.75 380.723 303.692 381.141 302.088 382.122C300.484 383.104 304.508 385.136 307.133 384.941C309.758 384.747 312.714 383.153 313.53 381.452C314.434 379.566 314.357 377.33 313.21 377.389" fill="#FFCEA9"/>
<path d="M310.78 377.622C311.246 378.779 310.07 380.188 306.939 381.17C303.809 382.152 303.517 380.888 303.517 380.888C301.432 381.82 299.4 382.868 297.431 384.028C295.545 385.34 294.709 389.15 294.457 395.565C294.165 403.001 294.145 414.033 294.389 415.977C294.389 415.977 297.908 419.486 302.399 419.117C306.891 418.747 314.474 414.762 316.311 411.691C316.253 405.169 315.495 404.109 316.554 400.357C318.965 391.765 320.239 388.246 319.063 382.531C318.09 377.826 316.739 377.243 314.882 377.282C313.509 377.34 312.139 377.469 310.78 377.671" fill="#F4F4F4"/>
<path d="M298.345 421.654L300.63 395.769L295.769 393.213L293.883 394.788L294.466 418.038V418.679V419.496C294.466 419.496 294.359 421.44 298.054 423.792C298.054 423.792 298.112 423.18 298.16 422.606L298.248 421.634L298.345 421.654Z" fill="#FFCEA9"/>
<path d="M298.919 382.424C296.43 382.375 294.836 383.697 294.233 387.536C293.63 391.376 293.261 394.515 293.261 394.515C294.404 395.793 295.995 396.583 297.704 396.722C300.717 397.052 301.592 395.526 301.592 395.526C301.592 395.526 301.903 391.531 302.078 388.829C302.253 386.127 302.001 382.482 298.919 382.424Z" fill="#EDEDED"/>
<path d="M303.118 357.57C309.204 356.705 313.112 360.612 313.569 364.85C313.997 368.903 311.498 373.112 309.68 374.784C307.91 375.24 306.033 375.014 304.421 374.152C304.319 373.047 304.28 371.937 304.304 370.828C304.304 370.828 307.269 364.587 298.549 364.694C298.549 364.694 294.66 358.775 303.099 357.57" fill="#3A2C6D"/>
<path d="M273.622 268.855C273.846 270.867 276.247 279.547 275.732 282.463C275.217 285.379 267.031 290.395 267.031 290.395L265.903 285.311L270.434 280.908L269.209 272.49L273.622 268.855Z" fill="#FFCEA9"/>
<path d="M267.293 260.321C268.088 259.952 268.992 259.888 269.831 260.143C270.671 260.398 271.387 260.952 271.843 261.701C273.048 263.694 274.302 270.537 274.409 271.703C274.409 271.703 272.728 274.036 270.19 273.647L267.293 260.321Z" fill="#EDEDED"/>
<path d="M257.94 356.889C256.159 357.382 254.254 357.152 252.642 356.248C251.368 356.248 244.446 353.332 243.503 355.81C242.677 357.988 245.681 360.009 247.276 360.398C250.775 361.244 253.361 362.984 254.771 363.314C255.821 363.538 257.172 363.684 258.008 362.857C258.981 361.885 258.922 358.221 257.94 356.918" fill="#38226D"/>
<path d="M254.771 362.682C253.362 362.381 250.776 360.641 247.276 359.766C245.934 359.436 243.62 357.968 243.387 356.219C243.076 358.231 245.788 360.009 247.276 360.369C250.776 361.215 253.362 362.955 254.771 363.285C255.821 363.509 257.173 363.654 258.009 362.828C258.222 362.588 258.378 362.302 258.466 361.992C257.945 362.386 257.341 362.653 256.7 362.772C256.059 362.892 255.398 362.861 254.771 362.682Z" fill="#9C73FF"/>
<path d="M269.18 351.864C267.398 352.358 265.493 352.128 263.881 351.222C262.598 351.222 255.676 348.307 254.733 350.785C253.907 352.972 256.911 354.984 258.515 355.373C262.015 356.219 264.601 357.968 266.001 358.289C267.051 358.512 268.402 358.658 269.238 357.832C270.21 356.86 270.152 353.196 269.18 351.893" fill="#38226D"/>
<path d="M266 357.638C264.6 357.346 262.014 355.597 258.514 354.722C257.172 354.401 254.859 352.924 254.625 351.174C254.314 353.186 257.017 354.965 258.514 355.324C262.014 356.17 264.6 357.92 266 358.24C267.05 358.464 268.401 358.61 269.237 357.784C269.457 357.547 269.614 357.26 269.694 356.948C269.175 357.343 268.57 357.611 267.929 357.731C267.287 357.851 266.627 357.819 266 357.638Z" fill="#9C73FF"/>
<path d="M269.316 333.036C269.016 330.462 268.479 327.921 267.712 325.445C267.712 325.445 268.188 318.904 268.431 312.702C268.703 305.655 271.144 299.464 269.219 293.845L247.49 298.705C247.49 298.705 248.803 326.777 249.094 330.179C249.251 332.821 249.576 335.451 250.067 338.052C251.039 343.505 252.672 356.471 252.672 356.471C254.324 357.262 256.195 357.471 257.98 357.064C257.98 357.064 257.815 340.676 257.669 336.749C257.484 331.948 257.338 332.317 257.338 332.317L258.058 320.371L258.534 314.432C258.534 314.432 259.137 318.797 259.506 322.685C259.847 326.087 260.663 329.158 261.577 335.476C262.374 340.958 263.667 352 263.667 352C265.962 353.332 269.082 352.224 269.082 352.224C269.082 352.224 269.919 337.838 269.296 333.085" fill="#FF7B7B"/>
<path d="M266.137 260.438C264.484 260.525 263.22 260.953 263.045 260.438C262.864 259.585 262.738 258.721 262.666 257.852C262.86 257.376 263.026 256.88 263.026 256.88C265.087 255.636 265.757 253.352 266.059 250.776C266.525 246.305 264.114 242.397 259.642 241.931C255.433 241.493 252.341 244.448 251.525 248.502C251.077 250.504 250.193 254.285 251.389 257.58C252.05 259.417 252.915 260.875 253.78 261.167C254.613 261.138 255.444 261.063 256.269 260.943C256.269 260.943 256.492 262.187 256.648 262.984C256.804 263.781 256.745 264.199 255.151 265.181C253.556 266.163 257.552 268.165 260.158 267.971C262.763 267.776 265.689 266.202 266.496 264.52C267.391 262.634 267.313 260.428 266.175 260.477" fill="#FFCEA9"/>
<path d="M263.744 260.69C264.201 261.828 263.035 263.227 259.933 264.209C256.832 265.191 256.54 263.927 256.54 263.927C254.47 264.849 252.455 265.887 250.503 267.038C248.636 268.34 247.81 272.111 247.586 278.478C247.295 285.855 247.266 296.79 247.518 298.676C247.518 298.676 250.999 302.146 255.461 301.787C259.924 301.427 267.429 297.471 269.247 294.419C269.198 287.955 268.45 286.905 269.49 283.182C271.891 274.658 273.145 271.169 271.988 265.502C271.016 260.836 269.675 260.253 267.837 260.302C266.477 260.359 265.12 260.489 263.773 260.69" fill="#F4F4F4"/>
<path d="M240.539 284.572C244.204 285.544 245.059 283.192 245.545 281.277C246.712 276.651 247.334 272.471 248.209 269.847C249.23 266.746 250.299 266.26 251.806 265.648C253.576 264.948 255.092 266.435 254.509 270.381C253.784 274.951 252.662 279.449 251.155 283.824C250.698 285.272 249.677 287.829 248.141 289.063C246.255 290.589 243.407 290.531 239.11 289.452C237.272 288.995 235.221 287.906 231.779 286.283C230.856 285.846 230.127 285.564 228.338 284.728C226.54 283.921 224.966 282.69 223.749 281.141C222.777 279.79 222.689 279.149 222.874 278.838C223.059 278.527 223.545 278.536 224.041 279.11C224.764 280.076 225.657 280.902 226.675 281.549C226.675 281.549 225.518 280.354 224.896 279.605C224.334 278.916 223.866 278.154 223.506 277.341C223.175 276.553 223.856 275.474 224.381 276.038C224.906 276.602 225.139 277.175 226.092 278.313C226.593 278.916 227.16 279.46 227.784 279.936C227.199 279.14 226.679 278.298 226.228 277.418C225.82 276.732 225.621 275.942 225.654 275.144C225.654 274.736 226.267 274.24 226.811 275.027C227.342 276.1 227.995 277.108 228.756 278.031C229.592 278.896 230.311 279.392 230.331 279.149C230.35 278.906 229.825 278.439 229.524 277.428C229.222 276.417 229.524 275.348 230.088 275.231C230.652 275.115 230.535 275.144 230.982 276.087C231.597 277.06 232.152 278.07 232.645 279.11C232.927 280.085 233.444 280.976 234.151 281.705C235.056 282.677 237.068 283.717 240.519 284.621" fill="#FFCEA9"/>
<path d="M253.158 265.016C250.717 264.656 248.987 265.764 247.908 269.468C246.829 273.171 246.07 276.204 246.07 276.204C247.042 277.599 248.509 278.572 250.173 278.925C253.09 279.635 254.149 278.235 254.149 278.235C254.149 278.235 254.956 274.347 255.462 271.713C255.967 269.079 256.191 265.463 253.158 265.016Z" fill="#EDEDED"/>
<path d="M251.631 247.86C251.631 247.86 247.743 242.028 256.142 240.794C262.179 239.928 266.059 243.807 266.506 248.016C266.933 252.03 264.454 256.209 262.666 257.862C260.908 258.312 259.045 258.086 257.445 257.23C257.35 256.138 257.314 255.041 257.338 253.945C257.338 253.945 260.255 247.753 251.631 247.86Z" fill="#3A2C6D"/>
<path d="M175.227 380.869L175.198 389.597L87.8857 440.335L87.9149 431.607L175.227 380.869Z" fill="#D3D3DD"/>
<path d="M87.9149 431.607L87.8858 440.335L0 389.607L0.0291656 380.878L87.9149 431.607Z" fill="#E0DEE9"/>
<path d="M175.227 380.869L87.9151 431.607L0.0292969 380.878L87.3415 330.14L175.227 380.869Z" fill="#6E6E9C"/>
<path d="M161.607 248.57L161.238 379.527L87.75 422.217L88.1194 291.27L161.607 248.57Z" fill="#D3D3DD"/>
<path d="M88.1186 291.27L87.7492 422.217L13.7754 379.527L14.1448 248.57L88.1186 291.27Z" fill="#E0DEE9"/>
<path d="M161.607 248.57L88.1193 291.27L14.1455 248.57L87.6332 205.87L161.607 248.57Z" fill="#6E6E9C"/>
<path d="M33.2103 305.83L33.1715 319.409L21.3594 312.585L21.3983 299.016L33.2103 305.83Z" fill="#2A313F"/>
<path d="M33.268 286.944L33.2291 300.513L21.417 293.7L21.4559 280.13L33.268 286.944Z" fill="#2A313F"/>
<path d="M33.3168 268.058L33.2779 281.637L21.4756 274.814L21.5048 261.235L33.3168 268.058Z" fill="#2A313F"/>
<path d="M80.9439 352.301L80.905 365.88L38.5176 341.415L38.5565 327.836L80.9439 352.301Z" fill="#2A313F"/>
<path d="M80.9927 333.415L80.9538 346.994L38.5762 322.529L38.6151 308.95L80.9927 333.415Z" fill="#2A313F"/>
<path d="M81.0513 314.529L81.0124 328.099L38.625 303.633L38.6639 290.064L81.0513 314.529Z" fill="#2A313F"/>
<path d="M81.1001 295.634L81.0613 309.213L38.6836 284.747L38.7225 271.178L81.1001 295.634Z" fill="#2A313F"/>
<path d="M33.1029 343.602L33.064 357.181L21.252 350.357L21.2908 336.788L33.1029 343.602Z" fill="#2A313F"/>
<path d="M33.1615 324.716L33.1226 338.295L21.3105 331.481L21.3494 317.902L33.1615 324.716Z" fill="#2A313F"/>
<path d="M80.8863 371.187L80.8474 384.766L38.4697 360.301L38.5086 346.722L80.8863 371.187Z" fill="#2A313F"/>
<path d="M106.775 307.852L106.814 321.431L94.992 328.254L94.9531 314.675L106.775 307.852Z" fill="#2A313F"/>
<path d="M106.717 288.966L106.756 302.545L94.9442 309.368L94.9053 295.789L106.717 288.966Z" fill="#2A313F"/>
<path d="M154.714 336.944L154.752 350.513L112.365 374.978L112.326 361.409L154.714 336.944Z" fill="#2A313F"/>
<path d="M154.656 318.048L154.695 331.627L112.317 356.092L112.278 342.513L154.656 318.048Z" fill="#2A313F"/>
<path d="M154.607 299.172L154.646 312.741L112.259 337.206L112.22 323.627L154.607 299.172Z" fill="#2A313F"/>
<path d="M154.549 280.276L154.587 293.855L112.21 318.32L112.171 304.741L154.549 280.276Z" fill="#2A313F"/>
<path d="M154.501 261.39L154.54 274.959L112.152 299.434L112.113 285.855L154.501 261.39Z" fill="#2A313F"/>
<path d="M106.931 364.52L106.97 378.089L95.158 384.912L95.1191 371.343L106.931 364.52Z" fill="#2A313F"/>
<path d="M106.882 345.624L106.921 359.203L95.0994 366.026L95.0605 352.447L106.882 345.624Z" fill="#2A313F"/>
<path d="M106.824 326.748L106.863 340.317L95.0506 347.14L95.0117 333.571L106.824 326.748Z" fill="#2A313F"/>
<path d="M161.267 368.962L161.238 379.517L87.75 422.217L87.7694 411.409L161.267 368.962Z" fill="#9052FE"/>
<path d="M87.7686 411.409L87.7394 422.217L13.7754 379.527L13.8046 368.709L87.7686 411.409Z" fill="#9052FE"/>
<path d="M87.2927 250.3C87.5711 250.319 87.8504 250.319 88.1288 250.3L92.3286 252.73C89.3245 253.643 86.1165 253.643 83.1123 252.73L87.2927 250.3Z" fill="#2A313F"/>
<path d="M69.0254 234.913C79.7195 229.732 95.4494 229.732 106.221 234.913L102.43 237.11C93.7676 233.125 81.45 233.125 72.8461 237.11L69.0254 234.913Z" fill="#2A313F"/>
<path d="M75.5098 238.655C83.2817 235.506 91.9745 235.506 99.7464 238.655L95.9257 240.881C90.5929 238.911 84.7313 238.911 79.3985 240.881L75.5098 238.655Z" fill="#2A313F"/>
<path d="M83.0537 243C86.0612 242.086 89.2723 242.086 92.2798 243L88.148 245.43H87.2924L83.0537 243Z" fill="#2A313F"/>
<path d="M91.9014 248.113C91.9208 247.951 91.9208 247.788 91.9014 247.627L96.0818 245.197C96.4523 245.536 96.7481 245.948 96.9505 246.407C97.1529 246.866 97.2575 247.363 97.2575 247.865C97.2575 248.367 97.1529 248.863 96.9505 249.323C96.7481 249.782 96.4523 250.194 96.0818 250.533L91.9014 248.113Z" fill="#2A313F"/>
<path d="M99.8145 252.72C103.217 249.804 103.207 245.994 99.8145 243.117L103.635 240.901C109.109 245.022 109.138 250.815 103.713 254.936L99.8145 252.72Z" fill="#2A313F"/>
<path d="M75.5874 243.068C72.1848 245.984 72.2139 249.794 75.6555 252.671L71.825 254.888C66.3516 250.766 66.3225 244.973 71.7473 240.852L75.5874 243.068Z" fill="#2A313F"/>
<path d="M106.329 256.443C113.134 251.447 113.134 244.302 106.231 239.306L110.023 237.1C118.987 243.321 119.045 252.419 110.14 258.639L106.329 256.443Z" fill="#2A313F"/>
<path d="M72.9625 258.63C81.6149 262.605 93.952 262.605 102.546 258.63L106.357 260.836C95.6631 266.007 79.9428 266.007 69.1807 260.836L72.9625 258.63Z" fill="#2A313F"/>
<path d="M69.0644 239.306C62.2591 244.293 62.2591 251.437 69.1617 256.443L65.3798 258.639C56.3968 252.419 56.3482 243.321 65.2535 237.1L69.0644 239.306Z" fill="#2A313F"/>
<path d="M79.4476 254.859C84.7804 256.829 90.642 256.829 95.9748 254.859L99.8635 257.084C92.0902 260.243 83.3906 260.243 75.6172 257.084L79.4476 254.859Z" fill="#2A313F"/>
<path d="M83.4814 247.627C83.4572 247.788 83.4572 247.952 83.4814 248.113L79.301 250.543C78.9276 250.205 78.6292 249.792 78.425 249.332C78.2208 248.871 78.1152 248.373 78.1152 247.87C78.1152 247.366 78.2208 246.868 78.425 246.408C78.6292 245.947 78.9276 245.535 79.301 245.197L83.4814 247.627Z" fill="#2A313F"/>
</svg>
