<svg width="50" height="50" viewBox="0 0 50 50" fill="none" xmlns="http://www.w3.org/2000/svg">
<path d="M46.8755 11.8479C45.1745 14.2831 43.0522 16.395 40.6087 18.0841C40.4541 22.3558 39.2072 26.5165 36.987 30.1691C34.7668 33.8217 31.6474 36.8443 27.9266 38.9483C24.2059 41.0523 20.0079 42.1675 15.7335 42.1874C11.4591 42.2073 7.25094 41.1312 3.51074 39.062L3.51201 39.0597C8.39608 38.992 13.1522 37.4881 17.1872 34.7354C12.8679 31.7914 9.57797 27.5698 7.77904 22.662C5.9801 17.7541 5.76217 12.4064 7.15579 7.36841C9.15182 10.4423 11.7993 13.0398 14.9109 14.9767C18.0224 16.9135 21.5219 18.1424 25.1612 18.5764C24.778 16.7494 25.0608 14.8458 25.9596 13.2097C26.8584 11.5736 28.3132 10.3133 30.0607 9.65691C31.8082 9.00052 33.7329 8.99137 35.4866 9.63114C37.2402 10.2709 38.7069 11.5173 39.6212 13.1448C42.09 13.0711 44.5343 12.6347 46.8755 11.8479Z" stroke="#E5E5E5" stroke-width="3" stroke-linecap="round" stroke-linejoin="round"/>
</svg>
