<svg width="47" height="39" viewBox="0 0 47 39" fill="none" xmlns="http://www.w3.org/2000/svg">
<path d="M44.8755 6.84788C43.1745 9.28314 41.0522 11.395 38.6087 13.0841C38.4541 17.3558 37.2072 21.5165 34.987 25.1691C32.7668 28.8217 29.6474 31.8443 25.9266 33.9483C22.2059 36.0523 18.0079 37.1675 13.7335 37.1874C9.4591 37.2073 5.25094 36.1312 1.51074 34.062L1.51201 34.0597C6.39608 33.992 11.1522 32.4881 15.1872 29.7354C10.8679 26.7914 7.57797 22.5698 5.77904 17.662C3.9801 12.7541 3.76217 7.40636 5.15579 2.36841C7.15182 5.44235 9.79932 8.0398 12.9109 9.97666C16.0224 11.9135 19.5219 13.1424 23.1612 13.5764C22.778 11.7494 23.0608 9.84575 23.9596 8.20967C24.8584 6.57359 26.3132 5.31331 28.0607 4.65691C29.8082 4.00052 31.7329 3.99137 33.4866 4.63114C35.2402 5.2709 36.7069 6.5173 37.6212 8.14477C40.09 8.07109 42.5343 7.63467 44.8755 6.84788Z" stroke="#E5E5E5" stroke-width="3" stroke-linecap="round" stroke-linejoin="round"/>
</svg>
