<svg width="399" height="313" viewBox="0 0 399 313" fill="none" xmlns="http://www.w3.org/2000/svg">
<path opacity="0.4" d="M278.918 258.353L201.919 213.977C201.476 213.723 201.11 213.355 200.858 212.91C200.607 212.465 200.48 211.96 200.492 211.45C200.503 210.939 200.652 210.441 200.923 210.007C201.194 209.574 201.577 209.223 202.031 208.989L211.718 203.986C212.141 203.769 212.612 203.662 213.087 203.673C213.563 203.684 214.028 203.814 214.441 204.05L294.027 249.92C294.47 250.175 294.836 250.545 295.087 250.99C295.338 251.435 295.464 251.94 295.453 252.451C295.442 252.963 295.293 253.461 295.022 253.895C294.751 254.329 294.369 254.681 293.915 254.916L286.888 258.537C285.65 259.178 284.272 259.497 282.879 259.464C281.487 259.432 280.124 259.05 278.918 258.353Z" fill="#D6D8E5"/>
<path d="M283.638 250L218.011 212.082C212.421 208.885 207.941 200.253 207.941 192.836V9.61613C207.941 2.19879 212.453 -1.21415 218.011 1.99897L283.638 39.9889C289.228 43.186 293.708 51.8183 293.708 59.2356V242.431C293.708 249.809 289.196 253.214 283.638 250Z" fill="#B1B4C4"/>
<path d="M284.764 253.301L289.962 250.672L284.979 242.12L284.764 253.301Z" fill="#B1B4C4"/>
<path d="M206.942 3.86131L211.726 1.35156L210.76 8.40923L206.942 3.86131Z" fill="#B1B4C4"/>
<path d="M279.501 252.095L213.882 214.177C208.292 210.979 203.82 202.347 203.82 194.93V11.7422C203.82 4.32489 208.324 0.911951 213.882 4.12507L279.501 42.043C285.091 45.2402 289.563 53.8724 289.563 61.2898V244.485C289.523 251.903 285.019 255.308 279.501 252.095Z" fill="#616E84"/>
<path d="M288.821 61.7613V244.941C288.821 252.366 284.317 255.771 278.759 252.566L253.029 237.691L245.043 233.072L213.14 214.648C207.55 211.451 203.078 202.819 203.078 195.393V12.2138C203.078 4.82043 207.582 1.38352 213.14 4.58864L278.759 42.5066C284.293 45.7197 288.821 54.376 288.821 61.7613Z" fill="#20232D"/>
<path d="M284.093 59.899V238.315C284.093 242.807 280.939 244.637 277.05 242.383L256.534 230.53L254.745 229.483L254.139 229.131L249.706 226.565L236.873 219.164L231.547 216.087L229.407 214.848L214.817 206.448C210.928 204.202 207.781 198.726 207.781 194.234V15.8186C207.781 11.3186 210.928 9.49626 214.817 11.7422L240.435 26.553V26.6249C240.545 28.5321 241.103 30.3865 242.063 32.0377C243.023 33.6889 244.359 35.0903 245.961 36.1284C248.996 37.8628 251.455 36.4561 251.455 32.9312C251.455 32.9312 251.455 32.8753 251.455 32.8513L277.074 47.662C280.939 49.932 284.093 55.3991 284.093 59.899Z" fill="white"/>
<path d="M248.402 34.4175C249.219 33.9474 249.224 32.4206 248.412 31.0073C247.601 29.594 246.281 28.8294 245.463 29.2995C244.646 29.7696 244.641 31.2965 245.453 32.7097C246.264 34.123 247.585 34.8876 248.402 34.4175Z" fill="#2B303F"/>
<path opacity="0.1" d="M245.961 32.7394C245.703 32.5706 245.489 32.3427 245.336 32.0744C245.183 31.8061 245.096 31.5052 245.083 31.1967C245.083 30.6372 245.474 30.3975 245.953 30.6932C246.207 30.8582 246.419 31.0812 246.57 31.3438C246.721 31.6064 246.808 31.9011 246.824 32.2038C246.824 32.7953 246.433 33.0191 245.961 32.7394Z" fill="white"/>
<path d="M291.48 85.8597C290.945 86.1714 290.506 85.8597 290.506 85.1244V77.3154C290.513 76.9518 290.605 76.595 290.774 76.2731C290.943 75.9512 291.185 75.6732 291.48 75.461C292.015 75.1573 292.446 75.461 292.446 76.1964V84.0054C292.442 84.3686 292.352 84.7257 292.184 85.0478C292.016 85.3699 291.775 85.648 291.48 85.8597Z" fill="#757B89"/>
<path d="M291.48 98.6562C290.945 98.968 290.506 98.6562 290.506 97.9289V90.1119C290.513 89.7483 290.605 89.3915 290.774 89.0696C290.943 88.7477 291.185 88.4697 291.48 88.2576C292.015 87.9538 292.446 88.2576 292.446 88.9929V96.8019C292.442 97.1653 292.353 97.5226 292.185 97.8448C292.017 98.167 291.776 98.445 291.48 98.6562Z" fill="#757B89"/>
<path opacity="0.4" d="M137.722 207.79L69.0847 247.714L0 207.79L68.6375 167.866L137.722 207.79Z" fill="#D6D8E5"/>
<path d="M143.017 198.455L143.001 205.321L74.3633 245.245L74.3793 238.371L143.017 198.455Z" fill="#D3D3DD"/>
<path d="M74.379 238.371L74.363 245.245L5.27832 205.321L5.29429 198.455L74.379 238.371Z" fill="#E0DEE9"/>
<path d="M143.017 198.455L74.3796 238.371L5.29492 198.455L73.9324 158.531L143.017 198.455Z" fill="#EAEAF4"/>
<path d="M132.315 94.3401L132.02 197.392L74.251 230.993L74.5464 127.942L132.315 94.3401Z" fill="#D3D3DD"/>
<path d="M74.5471 127.942L74.2517 230.993L16.1074 197.392L16.3949 94.3401L74.5471 127.942Z" fill="#E0DEE9"/>
<path d="M132.316 94.3401L74.5468 127.942L16.3945 94.3401L74.1634 60.7383L132.316 94.3401Z" fill="#EAEAF4"/>
<path d="M31.3836 139.396L31.3517 150.082L22.0723 144.719L22.0962 134.032L31.3836 139.396Z" fill="#2A313F"/>
<path d="M31.4237 124.537L31.3997 135.215L22.1123 129.852L22.1442 119.174L31.4237 124.537Z" fill="#2A313F"/>
<path d="M31.4717 109.67L31.4398 120.357L22.1523 114.994L22.1843 104.307L31.4717 109.67Z" fill="#2A313F"/>
<path d="M68.9011 175.971L68.8771 186.657L35.5605 167.403L35.5845 156.716L68.9011 175.971Z" fill="#2A313F"/>
<path d="M68.9491 161.104L68.9171 171.791L35.6006 152.536L35.6325 141.849L68.9491 161.104Z" fill="#2A313F"/>
<path d="M68.9891 146.246L68.9572 156.924L35.6406 137.669L35.6726 126.991L68.9891 146.246Z" fill="#2A313F"/>
<path d="M69.029 131.379L68.997 142.065L35.6885 122.811L35.7124 112.124L69.029 131.379Z" fill="#2A313F"/>
<path d="M31.3037 169.121L31.2718 179.807L21.9844 174.444L22.0163 163.758L31.3037 169.121Z" fill="#2A313F"/>
<path d="M31.3438 154.262L31.3118 164.949L22.0244 159.586L22.0564 148.899L31.3438 154.262Z" fill="#2A313F"/>
<path d="M68.8612 190.829L68.8292 201.516L35.5127 182.261L35.5446 171.575L68.8612 190.829Z" fill="#2A313F"/>
<path d="M89.2083 140.994L89.2403 151.681L79.9528 157.044L79.9209 146.357L89.2083 140.994Z" fill="#2A313F"/>
<path d="M89.1693 126.128L89.2012 136.814L79.9058 142.177L79.8818 131.499L89.1693 126.128Z" fill="#2A313F"/>
<path d="M126.894 163.878L126.926 174.556L93.6091 193.811L93.5771 183.132L126.894 163.878Z" fill="#2A313F"/>
<path d="M126.854 149.019L126.878 159.697L93.5691 178.952L93.5371 168.266L126.854 149.019Z" fill="#2A313F"/>
<path d="M126.806 134.152L126.838 144.831L93.5212 164.085L93.4893 153.407L126.806 134.152Z" fill="#2A313F"/>
<path d="M126.766 119.294L126.798 129.972L93.4812 149.227L93.4492 138.54L126.766 119.294Z" fill="#2A313F"/>
<path d="M126.726 104.427L126.758 115.105L93.4411 134.36L93.4092 123.674L126.726 104.427Z" fill="#2A313F"/>
<path d="M89.3363 185.586L89.3682 196.265L80.0728 201.628L80.0488 190.949L89.3363 185.586Z" fill="#2A313F"/>
<path d="M89.2964 170.72L89.3283 181.406L80.0329 186.769L80.001 176.083L89.2964 170.72Z" fill="#2A313F"/>
<path d="M89.2484 155.861L89.2803 166.539L79.9929 171.902L79.9609 161.224L89.2484 155.861Z" fill="#2A313F"/>
<path d="M132.045 189.079L132.021 197.392L74.2598 230.993L74.2757 222.481L132.045 189.079Z" fill="#9052FE"/>
<path d="M74.2756 222.481L74.2517 230.993L16.1074 197.392L16.1314 188.879L74.2756 222.481Z" fill="#9052FE"/>
<path d="M73.8925 95.7068C74.1161 95.7068 74.3317 95.7068 74.5473 95.7068L77.8534 97.6091C75.4919 98.3243 72.9718 98.3243 70.6104 97.6091L73.8925 95.7068Z" fill="#2A313F"/>
<path d="M59.5332 83.5897C67.9582 79.5134 80.2962 79.5134 88.769 83.5897L85.7903 85.3242C78.9865 82.183 69.2918 82.183 62.5358 85.3242L59.5332 83.5897Z" fill="#2A313F"/>
<path d="M64.6846 86.5391C70.7932 84.0537 77.6299 84.0537 83.7386 86.5391L80.7359 88.2815C76.5312 86.7232 71.9079 86.7232 67.7032 88.2815L64.6846 86.5391Z" fill="#2A313F"/>
<path d="M70.5615 89.96C72.9252 89.2409 75.449 89.2409 77.8126 89.96L74.5304 91.8703C74.3071 91.8543 74.083 91.8543 73.8596 91.8703L70.5615 89.96Z" fill="#2A313F"/>
<path d="M77.5098 93.9804C77.5297 93.8533 77.5297 93.7239 77.5098 93.5967L80.7919 91.6865C81.0837 91.9524 81.3169 92.2764 81.4764 92.6376C81.6359 92.9989 81.7183 93.3896 81.7183 93.7846C81.7183 94.1796 81.6359 94.5702 81.4764 94.9315C81.3169 95.2928 81.0837 95.6168 80.7919 95.8827L77.5098 93.9804Z" fill="#2A313F"/>
<path d="M83.7227 97.5372C86.3979 95.2753 86.3819 92.254 83.7227 89.984L86.7253 88.2416C91.0296 91.4867 91.0536 96.0426 86.7812 99.2877L83.7227 97.5372Z" fill="#2A313F"/>
<path d="M64.6844 90.0079C62.0092 92.2779 62.0331 95.2992 64.7323 97.5612L61.7297 99.3116C57.4254 96.0665 57.4014 91.5106 61.6658 88.2655L64.6844 90.0079Z" fill="#2A313F"/>
<path d="M88.8492 100.527C94.2396 96.602 94.1997 90.9751 88.7773 87.0506L91.756 85.3162C98.8074 90.2078 98.8553 97.3693 91.8519 102.261L88.8492 100.527Z" fill="#2A313F"/>
<path d="M62.632 102.253C69.4279 105.386 79.1226 105.386 85.8865 102.253L88.8812 103.987C80.4642 108.064 68.1182 108.064 59.6533 103.987L62.632 102.253Z" fill="#2A313F"/>
<path d="M59.5655 87.0506C54.1831 90.9751 54.2151 96.594 59.6454 100.527L56.6986 102.261C49.6392 97.3693 49.5993 90.2078 56.5948 85.3162L59.5655 87.0506Z" fill="#2A313F"/>
<path d="M67.7272 99.2877C71.9292 100.846 76.55 100.846 80.752 99.2877L83.7786 101.038C77.67 103.523 70.8332 103.523 64.7246 101.038L67.7272 99.2877Z" fill="#2A313F"/>
<path d="M70.8975 93.5967C70.8776 93.7239 70.8776 93.8533 70.8975 93.9804L67.6154 95.8907C67.3233 95.6241 67.0901 95.2994 66.9305 94.9374C66.7709 94.5755 66.6885 94.1842 66.6885 93.7886C66.6885 93.3929 66.7709 93.0017 66.9305 92.6397C67.0901 92.2778 67.3233 91.9531 67.6154 91.6865L70.8975 93.5967Z" fill="#2A313F"/>
<path d="M266.724 163.782C267.652 164.382 268.425 165.193 268.98 166.148C269.535 167.104 269.857 168.177 269.919 169.281V174.724C269.919 176.746 268.481 177.561 266.724 176.538L223.25 151.425C222.322 150.825 221.55 150.014 220.995 149.058C220.439 148.103 220.118 147.029 220.056 145.926V140.483C220.056 138.46 221.501 137.645 223.25 138.66L266.724 163.782Z" fill="#D5D7E2"/>
<path opacity="0.4" d="M175.239 287.655C191.985 287.655 205.561 279.811 205.561 270.134C205.561 260.458 191.985 252.614 175.239 252.614C158.493 252.614 144.917 260.458 144.917 270.134C144.917 279.811 158.493 287.655 175.239 287.655Z" fill="#D6D8E5"/>
<path d="M150.132 133.681C149.773 136.814 146.036 150.338 146.834 154.966C147.633 159.594 160.41 167.355 160.41 167.355L162.183 159.418L155.107 152.488L157.024 139.356L150.132 133.681Z" fill="#FFCEA9"/>
<path d="M159.995 120.349C158.752 119.774 157.343 119.676 156.033 120.072C154.723 120.468 153.604 121.332 152.887 122.499C151.011 125.616 149.062 136.294 148.895 138.117C148.895 138.117 151.53 141.762 155.483 141.154L159.995 120.349Z" fill="#EDEDED"/>
<path d="M174.577 271.133C177.366 271.913 180.35 271.554 182.874 270.134C184.871 270.198 195.651 265.57 197.137 269.455C198.423 272.86 193.743 276.009 191.243 276.648C185.789 277.967 181.756 280.693 179.56 281.156C177.963 281.5 175.815 281.724 174.513 280.445C172.916 278.87 173.052 273.164 174.577 271.133Z" fill="#38226D"/>
<path d="M179.52 280.181C181.717 279.718 185.749 276.984 191.204 275.673C193.304 275.162 196.913 272.868 197.273 270.134C197.76 273.268 193.535 276.049 191.204 276.617C185.749 277.935 181.717 280.661 179.52 281.125C177.923 281.468 175.775 281.692 174.473 280.413C174.138 280.038 173.894 279.589 173.763 279.102C174.572 279.719 175.514 280.139 176.514 280.326C177.513 280.513 178.543 280.464 179.52 280.181Z" fill="#9C73FF"/>
<path d="M157.056 263.261C159.83 264.027 162.794 263.668 165.306 262.261C167.302 262.325 178.083 257.69 179.568 261.582C180.854 264.987 176.182 268.136 173.683 268.776C168.22 270.094 164.188 272.82 161.992 273.284C160.394 273.627 158.246 273.851 156.945 272.564C155.395 270.982 155.531 265.291 157.056 263.261Z" fill="#38226D"/>
<path d="M161.999 272.308C164.195 271.845 168.228 269.111 173.69 267.8C175.782 267.289 179.392 264.995 179.751 262.261C180.238 265.395 176.022 268.176 173.69 268.744C168.228 270.062 164.195 272.788 161.999 273.252C160.402 273.595 158.254 273.819 156.952 272.532C156.615 272.161 156.371 271.714 156.241 271.229C157.05 271.847 157.992 272.266 158.992 272.453C159.992 272.64 161.022 272.591 161.999 272.308Z" fill="#9C73FF"/>
<path d="M156.84 233.887C157.305 229.87 158.139 225.905 159.332 222.041C159.332 222.041 158.589 211.827 158.222 202.139C157.799 191.141 153.982 181.462 156.992 172.694L190.86 180.239C190.86 180.239 188.807 224.072 188.36 229.379C188.109 233.51 187.599 237.621 186.835 241.688C185.286 250.192 182.778 270.462 182.778 270.462C179.193 272.54 174.489 271.389 174.489 271.389C174.489 271.389 174.744 245.812 174.976 239.658C175.256 232.176 175.487 232.744 175.487 232.744L174.369 214.097L173.634 204.817C173.634 204.817 172.692 211.627 172.085 217.709C171.55 223.009 170.272 227.812 168.843 237.691C167.605 246.26 165.593 263.46 165.593 263.46C162.007 265.546 157.144 263.82 157.144 263.82C157.144 263.82 155.874 241.312 156.84 233.887Z" fill="#8C50FF"/>
<path d="M161.792 120.541C164.371 120.661 166.296 121.34 166.583 120.541C166.864 119.209 167.061 117.861 167.174 116.504C166.879 115.753 166.623 114.946 166.623 114.946C163.381 112.955 162.359 109.447 161.927 105.354C161.201 98.3765 164.97 92.27 171.942 91.5347C178.498 90.8553 183.321 95.4671 184.607 101.797C185.302 104.923 186.683 110.829 184.815 115.969C183.776 118.846 182.419 121.124 181.085 121.564C179.786 121.526 178.49 121.411 177.204 121.22C177.204 121.22 176.853 123.154 176.613 124.417C176.374 125.68 176.469 126.319 178.945 127.846C181.421 129.373 175.2 132.506 171.143 132.202C167.086 131.898 162.55 129.509 161.313 126.839C159.899 123.914 160.019 120.453 161.792 120.541Z" fill="#FFCEA9"/>
<path d="M165.529 120.916C164.81 122.707 166.631 124.913 171.478 126.415C176.326 127.918 176.757 125.976 176.757 125.976C176.757 125.976 183.864 129.173 186.18 130.835C189.095 132.873 190.381 138.764 190.772 148.707C191.227 160.217 191.267 177.29 190.884 180.239C190.884 180.239 185.445 185.658 178.49 185.091C171.534 184.523 159.819 178.353 156.984 173.597C157.056 163.502 158.238 161.863 156.609 156.013C152.872 142.705 150.899 137.254 152.72 128.414C154.213 121.124 156.313 120.221 159.188 120.285C161.312 120.383 163.428 120.594 165.529 120.916Z" fill="#F4F4F4"/>
<path d="M218.419 149.714C212.677 148.38 205.21 147.716 202.663 145.99C196.498 141.81 191.427 137.597 187.69 135.439C183.281 132.89 181.525 133.433 179.145 134.288C176.35 135.303 176.134 138.62 180.91 142.609C186.564 147.317 191.036 150.178 198.79 154.798C200.818 156.005 223.37 158.115 229.343 158.347C230.94 158.411 232.154 158.523 235.237 158.642C238.319 158.762 241.889 158.163 244.157 156.948C246.425 155.733 247.056 154.934 247.008 154.366C246.952 153.655 246.297 153.471 245.195 153.911C243.503 154.732 241.677 155.241 239.805 155.413C239.805 155.413 242.264 154.614 243.686 153.951C244.956 153.393 246.146 152.667 247.223 151.793C248.245 150.929 248.062 148.955 246.944 149.395C245.826 149.834 245.067 150.434 242.951 151.337C241.827 151.818 240.65 152.165 239.445 152.368C240.839 151.678 242.174 150.876 243.438 149.97C244.483 149.302 245.315 148.348 245.834 147.221C246.097 146.629 245.634 145.526 244.316 146.23C243.127 146.853 241.921 148.148 239.445 148.995C237.664 149.603 236.323 149.794 236.466 149.435C236.61 149.075 237.68 148.803 238.814 147.62C239.948 146.437 240.292 144.727 239.613 144.167C238.934 143.608 239.046 143.728 237.752 144.719C236.459 145.71 234.997 146.19 233.288 147.732C232.2 148.881 230.849 149.748 229.351 150.258C227.387 150.929 223.873 150.977 218.419 149.714Z" fill="#FFCEA9"/>
<path d="M176.781 131.842C179.488 129.085 182.674 128.837 187.498 132.434C192.321 136.031 196.122 139.108 196.122 139.108C196.232 141.76 195.323 144.354 193.583 146.357C190.604 149.986 187.993 149.235 187.993 149.235C187.993 149.235 183.329 145.167 180.215 142.345C177.1 139.524 173.435 135.239 176.781 131.842Z" fill="#EDEDED"/>
<path d="M184.415 100.902C184.415 100.902 190.444 91.7345 177.387 89.8641C167.972 88.5213 161.919 94.5719 161.224 101.15C160.554 107.424 164.419 113.939 167.206 116.528C168.563 117.016 171.494 117.327 175.343 115.545C175.496 113.836 175.554 112.121 175.519 110.406C175.519 110.406 170.935 100.734 184.415 100.902Z" fill="#3A2C6D"/>
<g opacity="0.4">
<path opacity="0.4" d="M384.914 288.862C394.361 294.321 402.379 293.753 393.626 300.203C371.154 316.756 360.35 314.103 350.902 308.644L309.792 284.881C300.337 279.422 305.99 267.297 315.382 261.854C324.773 256.411 334.348 259.64 343.803 265.107L384.914 288.862Z" fill="#D6D8E5"/>
</g>
<path d="M398.936 227.82C398.936 228.068 398.896 228.324 398.848 228.58C398.808 228.787 398.757 228.993 398.696 229.195C398.633 229.435 398.577 229.675 398.489 229.914C398.401 230.154 398.329 230.306 398.241 230.506C398.153 230.706 398.026 231.009 397.89 231.257C397.754 231.505 397.674 231.617 397.57 231.793C397.467 231.969 397.211 232.36 397.003 232.632C396.796 232.904 396.596 233.167 396.365 233.431C396.309 233.487 396.261 233.551 396.205 233.615C395.893 233.959 395.55 234.286 395.191 234.614C394.959 234.822 394.704 235.022 394.448 235.23C394.192 235.437 394.017 235.589 393.777 235.757C393.538 235.925 393.202 236.149 392.907 236.341C392.611 236.532 392.316 236.74 391.988 236.924C391.251 237.35 390.491 237.737 389.712 238.083L389.026 238.371C388.413 238.637 387.783 238.877 387.133 239.09C386.901 239.17 386.67 239.258 386.438 239.33C386.031 239.458 385.64 239.57 385.192 239.69C384.745 239.81 384.57 239.866 384.242 239.945C383.915 240.025 383.356 240.137 382.909 240.225C382.605 240.289 382.31 240.361 381.998 240.409C381.096 240.569 380.177 240.697 379.259 240.793L378.397 240.865C377.854 240.913 377.311 240.953 376.799 240.976C376.456 240.976 376.105 240.976 375.753 240.976C375.402 240.976 374.875 240.976 374.436 240.976C373.996 240.976 373.693 240.976 373.326 240.976C372.958 240.976 372.527 240.976 372.104 240.913L370.986 240.825L369.788 240.689L368.71 240.537L367.424 240.313L366.426 240.113C365.923 240.001 365.428 239.873 364.933 239.746L364.134 239.522C363.248 239.258 362.385 238.97 361.547 238.643C361.131 238.483 360.748 238.307 360.333 238.131C360.125 238.035 359.91 237.955 359.71 237.859C359.103 237.564 358.504 237.26 357.937 236.932L316.811 213.169C312.059 210.42 309.687 206.815 309.695 203.21L309.52 267.625C309.52 271.229 311.915 274.818 316.635 277.576L357.69 301.354C358.265 301.682 358.855 301.986 359.462 302.273C359.662 302.369 359.886 302.457 360.093 302.545C360.453 302.705 360.804 302.873 361.171 303.017L361.299 303.065C362.138 303.392 363 303.68 363.887 303.936L364.094 304.008L364.717 304.16C365.212 304.288 365.707 304.416 366.21 304.527C366.346 304.527 366.474 304.599 366.61 304.623L367.217 304.727C367.64 304.807 368.063 304.887 368.494 304.951L369.005 305.039C369.189 305.039 369.381 305.079 369.572 305.103C369.972 305.159 370.371 305.199 370.778 305.239L371.345 305.303H371.888L373.11 305.367H373.725H376.193H376.584C377.135 305.367 377.67 305.303 378.181 305.263L378.844 305.215H379.043C379.97 305.119 380.88 304.991 381.791 304.831H381.918C382.182 304.783 382.429 304.711 382.717 304.663C383.164 304.578 383.611 304.482 384.059 304.376L385.001 304.12C385.416 304.008 385.839 303.896 386.247 303.768L386.51 303.688C386.662 303.64 386.79 303.576 386.941 303.528C387.586 303.305 388.216 303.065 388.834 302.809L389.529 302.513C390.327 302.162 391.078 301.778 391.805 301.362L392.092 301.186C392.316 301.051 392.507 300.907 392.715 300.771C392.923 300.635 393.314 300.395 393.585 300.195C393.857 299.996 394.041 299.836 394.256 299.66C394.472 299.484 394.767 299.26 394.999 299.044L395.151 298.924C395.454 298.637 395.742 298.349 396.013 298.053L396.173 297.861C396.333 297.678 396.5 297.502 396.644 297.318C396.788 297.134 396.748 297.15 396.812 297.07C397.019 296.79 397.203 296.511 397.379 296.223C397.451 296.111 397.546 295.991 397.61 295.871C397.644 295.812 397.674 295.751 397.698 295.687C397.83 295.444 397.947 295.193 398.05 294.936C398.113 294.792 398.201 294.648 398.257 294.504C398.313 294.361 398.257 294.401 398.257 294.353C398.345 294.113 398.401 293.865 398.465 293.625C398.521 293.465 398.569 293.303 398.609 293.138C398.609 293.098 398.609 293.058 398.609 293.01C398.609 292.754 398.672 292.506 398.688 292.25C398.704 291.995 398.744 291.923 398.752 291.755V291.539L398.936 227.133C398.947 227.362 398.947 227.591 398.936 227.82Z" fill="#D5D7E2"/>
<path d="M391.885 217.182C401.324 222.641 401.38 231.497 391.989 236.956C382.598 242.415 367.321 242.423 357.874 236.956L316.747 213.193C307.308 207.734 307.252 198.878 316.651 193.411C326.051 187.944 341.311 187.952 350.759 193.411L391.885 217.182Z" fill="#E9EAF4"/>
<path d="M330.49 267.96L336.08 252.774C334.42 250.591 333.464 247.953 333.341 245.213C333.341 242.096 335.082 240.417 337.494 240.825C338.255 240.949 338.985 241.22 339.642 241.624C343.108 243.63 345.919 248.474 345.903 252.47C345.903 254.956 344.793 256.507 343.124 256.842L347.308 273.276L348.618 278.455L330.49 267.96Z" fill="#3A4151"/>
<path d="M334.291 265.738L339.881 250.552C338.214 248.373 337.258 245.733 337.142 242.991C337.134 242.254 337.253 241.521 337.493 240.825C338.254 240.949 338.984 241.22 339.641 241.624C343.107 243.63 345.918 248.474 345.902 252.47C345.902 254.956 344.792 256.507 343.123 256.842L347.308 273.276L334.291 265.738Z" fill="#323944"/>
<path d="M341.135 170.696C340.753 170.93 340.393 171.197 340.057 171.495L339.881 171.655C339.58 171.958 339.312 172.293 339.083 172.654L338.867 173.005L338.819 173.093C338.776 173.156 338.739 173.223 338.708 173.293C338.581 173.53 338.471 173.776 338.38 174.029C338.38 174.029 338.38 174.029 338.38 174.077C338.164 174.675 338.022 175.298 337.957 175.931V176.003C337.911 176.353 337.889 176.705 337.893 177.058L337.837 198.638V206.416C335.993 207.343 333.951 207.809 331.888 207.774V197.264V180.543C331.891 179.977 331.942 179.413 332.039 178.856C332.039 178.744 332.079 178.624 332.111 178.505C332.142 178.348 332.182 178.193 332.231 178.041C332.231 178.041 332.231 177.993 332.231 177.969C332.275 177.828 332.325 177.689 332.383 177.553C332.375 177.53 332.375 177.505 332.383 177.481C332.431 177.37 332.471 177.266 332.519 177.162C332.543 177.07 332.578 176.982 332.622 176.898C332.651 176.861 332.675 176.821 332.694 176.778C332.794 176.563 332.911 176.358 333.046 176.163C333.046 176.163 333.046 176.163 333.086 176.163C333.204 175.986 333.332 175.815 333.469 175.651C333.613 175.491 333.756 175.331 333.908 175.18C333.954 175.114 334.014 175.059 334.084 175.02C334.246 174.868 334.416 174.727 334.595 174.596C334.747 174.471 334.913 174.364 335.09 174.276C335.14 174.233 335.194 174.193 335.25 174.156L341.135 170.696Z" fill="#323944"/>
<path d="M384.817 203.466V204.201L384.762 225.566V233.423C382.933 234.32 380.92 234.772 378.884 234.742H378.812V224.232L378.852 207.67C378.855 206.794 378.807 205.919 378.708 205.049C378.66 204.625 378.605 204.186 378.533 203.746C378.533 203.69 378.533 203.618 378.533 203.554C378.477 203.218 378.421 202.867 378.341 202.531C378.349 202.483 378.349 202.435 378.341 202.387C378.165 201.54 377.958 200.677 377.71 199.813C377.71 199.694 377.638 199.59 377.606 199.478C377.495 199.094 377.375 198.726 377.247 198.351C377.119 197.975 376.951 197.472 376.792 197.032C376.632 196.592 376.48 196.233 376.321 195.833C376.121 195.305 375.881 194.778 375.65 194.234C375.619 194.179 375.595 194.12 375.578 194.059C375.578 194.059 375.578 194.019 375.53 193.987C375.107 193.052 374.644 192.1 374.133 191.165C373.941 190.782 373.733 190.414 373.518 190.038C373.238 189.535 372.959 189.039 372.655 188.544C372.352 188.048 371.976 187.504 371.641 186.993C371.481 186.729 371.322 186.465 371.146 186.194L370.97 185.93C370.941 185.883 370.906 185.841 370.866 185.802C369.652 184.017 368.346 182.296 366.953 180.647C366.865 180.535 366.762 180.431 366.674 180.327C366.027 179.528 365.372 178.816 364.685 178.105C364.593 177.991 364.491 177.884 364.382 177.785C364.031 177.418 363.679 177.05 363.312 176.682C362.944 176.315 362.465 175.835 362.026 175.427C361.363 174.812 360.708 174.196 360.022 173.597C358.84 172.574 357.626 171.604 356.38 170.688L355.653 170.16C354.31 169.193 352.919 168.294 351.485 167.466C350.998 167.187 350.535 166.939 350.063 166.667C349.592 166.395 349.009 166.124 348.466 165.868C348.107 165.692 347.74 165.532 347.388 165.372L346.933 165.165L346.39 164.949C345.416 164.541 344.449 164.149 343.499 163.894C343.462 163.885 343.425 163.88 343.387 163.878L343.036 163.79C342.876 163.726 342.717 163.702 342.573 163.654C342.429 163.606 342.174 163.534 341.99 163.494H341.942L341.551 163.406C341.199 163.318 340.872 163.246 340.536 163.19C340.353 163.142 340.145 163.118 339.954 163.086C339.919 163.079 339.884 163.079 339.85 163.086L339.139 162.967H338.971C338.532 162.903 338.089 162.863 337.646 162.847C337.365 162.815 337.082 162.799 336.799 162.799H336.376C335.944 162.795 335.512 162.817 335.082 162.863H335.002H334.675C334.538 162.87 334.402 162.886 334.268 162.911C334.144 162.92 334.021 162.939 333.9 162.967H333.86C333.757 162.967 333.653 163.014 333.549 163.022C333.301 163.07 333.054 163.11 332.806 163.182C332.767 163.176 332.726 163.176 332.686 163.182C332.617 163.183 332.549 163.199 332.487 163.23C332.307 163.269 332.131 163.322 331.96 163.39C331.822 163.418 331.685 163.455 331.552 163.502C331.552 163.502 331.505 163.502 331.489 163.502C331.473 163.502 331.489 163.502 331.489 163.502C331.194 163.601 330.906 163.719 330.626 163.854L330.522 163.894C330.337 163.977 330.155 164.071 329.979 164.173C329.857 164.221 329.739 164.28 329.628 164.349L335.593 160.88C336.192 160.537 336.82 160.248 337.47 160.017C337.493 160.01 337.518 160.01 337.542 160.017C338.063 159.834 338.597 159.687 339.139 159.578L339.315 159.53H339.514C339.882 159.458 340.265 159.418 340.64 159.37H340.888H340.968C341.415 159.37 341.87 159.314 342.349 159.314H342.589C342.956 159.314 343.323 159.314 343.707 159.314H343.763C343.954 159.314 344.154 159.362 344.346 159.37L345.096 159.45H345.168C345.416 159.45 345.663 159.538 345.927 159.57C346.19 159.602 346.294 159.626 346.478 159.673H346.542C346.981 159.761 347.428 159.865 347.899 159.977C348.339 160.081 348.786 160.209 349.225 160.345C349.248 160.338 349.273 160.338 349.297 160.345C349.452 160.385 349.604 160.435 349.752 160.497C350.047 160.585 350.327 160.673 350.599 160.776C350.654 160.788 350.708 160.806 350.758 160.832C350.949 160.888 351.136 160.958 351.317 161.04C351.533 161.128 351.756 161.2 351.988 161.288C352.073 161.332 352.161 161.369 352.252 161.4L352.85 161.664C353.026 161.736 353.202 161.8 353.378 161.887C353.515 161.942 353.649 162.006 353.777 162.079C353.99 162.162 354.198 162.258 354.4 162.367C354.535 162.423 354.663 162.487 354.799 162.559C354.935 162.631 355.166 162.735 355.334 162.823C355.502 162.911 355.749 163.038 355.949 163.158C356.052 163.197 356.151 163.245 356.244 163.302L357.386 163.934C357.498 164.006 357.618 164.062 357.722 164.141C358.233 164.429 358.728 164.741 359.223 165.061C359.479 165.204 359.726 165.38 359.974 165.54C360.094 165.632 360.22 165.717 360.349 165.796L360.732 166.052C361.244 166.403 361.739 166.755 362.242 167.123L362.705 167.49C362.849 167.594 363 167.69 363.144 167.81C363.288 167.93 363.551 168.122 363.759 168.298C364.286 168.689 364.781 169.097 365.292 169.537L365.452 169.68C365.551 169.759 365.644 169.845 365.732 169.936C366.083 170.224 366.434 170.52 366.786 170.839C367.137 171.159 367.544 171.527 367.912 171.894C367.986 171.95 368.053 172.014 368.111 172.086C368.152 172.107 368.188 172.137 368.215 172.174C368.684 172.617 369.139 173.064 369.581 173.517L370.275 174.252C370.379 174.348 370.483 174.468 370.587 174.572C370.691 174.676 370.763 174.748 370.85 174.852C371.242 175.275 371.649 175.731 372.032 176.163C372.224 176.37 372.4 176.594 372.575 176.794L372.839 177.114C372.943 177.234 373.054 177.354 373.142 177.465C373.542 177.937 373.901 178.393 374.268 178.856C374.404 179.032 374.532 179.208 374.676 179.384C374.819 179.56 374.899 179.664 375.003 179.807L375.426 180.367C375.778 180.846 376.113 181.35 376.464 181.83L376.856 182.397L376.959 182.549C377.167 182.837 377.343 183.164 377.542 183.452C377.926 184.068 378.341 184.667 378.684 185.266L378.82 185.49C379.243 186.178 379.619 186.881 380.002 187.576C380.002 187.64 380.058 187.696 380.09 187.752C380.132 187.824 380.169 187.899 380.202 187.976C380.377 188.312 380.553 188.631 380.721 188.967C380.888 189.303 381.056 189.647 381.216 189.982C381.304 190.166 381.376 190.358 381.463 190.534C381.493 190.59 381.517 190.649 381.535 190.71C381.583 190.798 381.623 190.901 381.671 190.989C381.815 191.309 381.943 191.621 382.078 191.941C382.214 192.26 382.326 192.556 382.454 192.86C382.518 193.02 382.573 193.187 382.629 193.347C382.644 193.403 382.665 193.457 382.693 193.507C382.725 193.605 382.762 193.701 382.805 193.795C382.909 194.123 383.029 194.426 383.132 194.738C383.236 195.05 383.332 195.361 383.42 195.673C383.468 195.817 383.508 195.961 383.556 196.113C383.604 196.265 383.556 196.217 383.596 196.273C383.636 196.383 383.671 196.495 383.699 196.608C383.787 196.928 383.875 197.24 383.947 197.543C384.019 197.847 384.091 198.143 384.155 198.439C384.155 198.567 384.211 198.718 384.242 198.846C384.239 198.892 384.239 198.937 384.242 198.982C384.242 199.094 384.29 199.214 384.306 199.318C384.362 199.606 384.41 199.901 384.466 200.181C384.522 200.461 384.538 200.733 384.586 200.98C384.634 201.228 384.586 201.316 384.626 201.492C384.633 201.526 384.633 201.562 384.626 201.596C384.63 201.665 384.63 201.734 384.626 201.804C384.626 202.067 384.674 202.339 384.69 202.603C384.706 202.867 384.801 203.218 384.817 203.466Z" fill="#323944"/>
<path d="M378.868 207.67L378.828 224.232V234.742C375.259 234.742 372.208 233.463 370.843 231.665V227.293L370.914 203.059C370.914 194.866 362.026 182.781 351.453 176.682C346.702 173.933 342.278 172.782 338.836 173.101C337.605 173.188 336.405 173.531 335.314 174.109C335.258 174.145 335.205 174.185 335.154 174.228C334.978 174.317 334.812 174.424 334.659 174.548C334.476 174.673 334.305 174.815 334.148 174.972C334.078 175.011 334.018 175.066 333.972 175.132C333.808 175.271 333.661 175.429 333.533 175.603C333.387 175.759 333.258 175.93 333.15 176.115C333.15 176.115 333.15 176.115 333.11 176.115C332.976 176.31 332.858 176.516 332.759 176.73C332.684 176.85 332.625 176.979 332.583 177.114C332.523 177.213 332.477 177.321 332.447 177.434C332.439 177.457 332.439 177.482 332.447 177.505C332.38 177.663 332.326 177.826 332.287 177.993C332.238 178.145 332.198 178.3 332.168 178.457C332.137 178.572 332.113 178.69 332.096 178.808C331.998 179.365 331.948 179.929 331.944 180.495V197.216V207.726C328.422 207.726 325.38 206.511 323.958 204.753V200.173L323.902 175.867C323.902 170.176 326.154 166.212 329.892 164.237C330.068 164.135 330.249 164.041 330.435 163.958L330.539 163.918C330.818 163.783 331.106 163.665 331.401 163.566C331.553 163.503 331.711 163.455 331.872 163.422C332.043 163.354 332.219 163.301 332.399 163.262C332.461 163.231 332.529 163.215 332.599 163.214C332.638 163.208 332.679 163.208 332.719 163.214L333.086 163.134C333.209 163.1 333.335 163.073 333.461 163.054C333.565 163.054 333.669 163.014 333.773 162.998H333.813C333.934 162.971 334.056 162.952 334.18 162.943C334.315 162.918 334.451 162.902 334.587 162.895C334.723 162.882 334.859 162.882 334.995 162.895C335.424 162.849 335.856 162.827 336.288 162.831H336.711C336.994 162.831 337.277 162.847 337.558 162.879C338.002 162.895 338.444 162.935 338.884 162.998C339.179 163.025 339.472 163.067 339.762 163.126C339.796 163.119 339.832 163.119 339.866 163.126C340.058 163.126 340.265 163.182 340.449 163.23C340.784 163.286 341.112 163.358 341.463 163.446C341.814 163.534 342.134 163.606 342.485 163.71C342.629 163.758 342.789 163.782 342.948 163.846L343.42 163.974C344.37 164.269 345.336 164.621 346.31 165.029C346.654 165.157 346.973 165.308 347.309 165.452C347.644 165.596 348.027 165.772 348.387 165.948L349.329 166.419C349.529 166.531 349.752 166.635 349.952 166.739C350.423 167.003 350.886 167.251 351.373 167.538C352.807 168.366 354.199 169.265 355.542 170.232L356.269 170.76C357.514 171.676 358.728 172.646 359.91 173.669C360.597 174.268 361.252 174.884 361.915 175.499C362.354 175.907 362.777 176.299 363.2 176.754C363.623 177.21 363.919 177.489 364.27 177.857C364.38 177.956 364.481 178.063 364.574 178.177C365.261 178.888 365.915 179.64 366.562 180.399C366.65 180.503 366.754 180.607 366.842 180.719C368.235 182.368 369.541 184.089 370.755 185.874C370.857 185.998 370.95 186.129 371.034 186.266C371.561 187.065 372.056 187.816 372.544 188.608C372.847 189.103 373.127 189.599 373.406 190.102C373.622 190.478 373.829 190.845 374.021 191.229C374.532 192.164 374.995 193.115 375.418 194.051C375.466 194.139 375.506 194.226 375.538 194.298C375.77 194.826 376.009 195.353 376.209 195.897C376.369 196.289 376.528 196.696 376.68 197.096C376.832 197.496 377 197.975 377.135 198.415C377.271 198.854 377.383 199.158 377.495 199.542C377.495 199.654 377.567 199.757 377.599 199.877C377.846 200.741 378.07 201.604 378.229 202.451C378.237 202.499 378.237 202.547 378.229 202.595C378.309 202.931 378.365 203.282 378.421 203.618C378.421 203.682 378.421 203.754 378.421 203.81C378.493 204.249 378.549 204.673 378.597 205.113C378.736 205.959 378.826 206.813 378.868 207.67Z" fill="#3A4151"/>
<path d="M270.757 99.6474C271.157 99.9112 271.491 100.266 271.729 100.682C271.968 101.099 272.105 101.566 272.13 102.045L272.018 141.953C272.018 145.47 269.511 146.901 266.428 145.151L227.594 122.675C225.983 121.624 224.643 120.208 223.681 118.541C222.72 116.875 222.164 115.005 222.06 113.083L222.171 73.1751C222.171 72.2959 222.802 71.9362 223.561 72.3758L227.729 74.7737V68.3794C227.729 56.0545 236.514 51.067 247.223 57.2614C257.932 63.4558 266.628 78.5143 266.588 90.8313V97.2255L270.757 99.6474ZM258.259 92.4538V86.0596C258.259 79.0099 253.316 70.4096 247.199 66.8768C241.082 63.3439 236.075 66.1894 236.059 73.2311V79.6253L258.267 92.4139L258.259 92.4538ZM251.232 121.748L250.377 112.156C251.806 111.788 252.661 110.398 252.661 108.336C252.56 106.413 252.005 104.542 251.044 102.875C250.082 101.208 248.74 99.7928 247.127 98.7442C244.068 96.9778 241.537 98.4005 241.537 101.941C241.627 104.267 242.414 106.512 243.797 108.384L242.894 116.936C242.867 117.438 242.983 117.937 243.23 118.375C243.471 118.837 243.829 119.228 244.268 119.51L249.858 122.707C250.007 122.815 250.184 122.879 250.368 122.89C250.552 122.902 250.735 122.86 250.896 122.771C251.039 122.643 251.147 122.48 251.209 122.298C251.27 122.115 251.284 121.92 251.247 121.732" fill="#D5D7E2"/>
<path d="M267.858 187.409C268.453 187.785 268.95 188.297 269.308 188.902C269.666 189.508 269.875 190.191 269.918 190.893V196.488C269.918 197.767 269 198.287 267.89 197.647L222.004 171.151C221.417 170.768 220.928 170.253 220.577 169.646C220.226 169.039 220.023 168.358 219.983 167.658V162.063C219.983 160.776 220.902 160.265 222.012 160.912L267.858 187.409Z" fill="#D5D7E2"/>
</svg>
