<svg width="30" height="28" viewBox="0 0 30 28" fill="none" xmlns="http://www.w3.org/2000/svg">
<mask id="path-1-inside-1_640_29" fill="white">
<path fill-rule="evenodd" clip-rule="evenodd" d="M10 0C4.47715 0 0 4.47715 0 10V23V24V25.4676C0 27.0222 1.69594 27.9824 3.02899 27.1826L8.33333 24H20C25.5228 24 30 19.5228 30 14V10C30 4.47715 25.5228 0 20 0H10Z"/>
</mask>
<path d="M3.02899 27.1826L4.57248 29.7551L4.57248 29.7551L3.02899 27.1826ZM8.33333 24V21H7.50238L6.78985 21.4275L8.33333 24ZM3 10C3 6.13401 6.13401 3 10 3V-3C2.8203 -3 -3 2.8203 -3 10H3ZM3 23V10H-3V23H3ZM-3 23V24H3V23H-3ZM-3 24V25.4676H3V24H-3ZM-3 25.4676C-3 29.3541 1.23986 31.7547 4.57248 29.7551L1.48551 24.6101C2.15203 24.2102 3 24.6903 3 25.4676H-3ZM4.57248 29.7551L9.87682 26.5725L6.78985 21.4275L1.4855 24.6101L4.57248 29.7551ZM20 21H8.33333V27H20V21ZM27 14C27 17.866 23.866 21 20 21V27C27.1797 27 33 21.1797 33 14H27ZM27 10V14H33V10H27ZM20 3C23.866 3 27 6.13401 27 10H33C33 2.8203 27.1797 -3 20 -3V3ZM10 3H20V-3H10V3Z" fill="#E5E5E5" mask="url(#path-1-inside-1_640_29)"/>
</svg>
